<svg width="770" height="23" viewBox="0 0 770 23" fill="none" xmlns="http://www.w3.org/2000/svg">
<path d="M655.335 13.5879C655.353 13.513 659.129 -2.08063 670.966 0.234404C682.824 2.5556 682.837 12.1184 682.837 12.1377C682.846 12.107 686.615 -0.0533577 697.311 1.39554C702.033 2.03505 704.84 6.1179 706.505 10.4825C708.468 8.16027 714.946 1.39555 723.82 1.39554C734.53 1.3956 737.428 10.6856 737.428 10.6856C737.454 10.6545 745.872 0.599852 754.215 1.39554C765.537 2.47858 769.649 21.4167 770.001 22H515.009C515 22.1218 514.97 22.1152 514.916 22H258.999L258.99 22.0596C258.976 22.1148 258.949 22.0913 258.906 22H0.154183C0.151791 21.979 -2.15421 1.68893 11.1522 3.1387C24.4288 4.58528 24.4676 11.2294 24.4677 11.2676C24.5142 11.2043 31.7434 1.39657 42.4159 1.39651C53.1257 1.39658 56.0223 10.6856 56.0223 10.6856C56.0715 10.6313 64.444 1.39651 72.8124 1.39651C81.2079 1.39683 85.5497 12.4268 85.5497 12.4268C85.5522 12.4019 86.7178 0.816435 97.1268 0.816435C107.548 0.816745 111.891 12.7188 111.891 12.7188C111.901 12.6863 116.252 -0.632587 130.997 1.39651C145.703 3.42184 144.322 13.5104 144.311 13.5879C144.334 13.4932 148.112 -2.07909 159.943 0.234404C171.801 2.55549 171.813 12.1184 171.813 12.1377C171.824 12.103 175.593 -0.0521442 186.288 1.39651C191.009 2.03617 193.816 6.1188 195.481 10.4834C197.445 8.16136 203.923 1.39651 212.797 1.39651C223.506 1.39674 226.404 10.6856 226.404 10.6856C226.449 10.6315 234.86 0.601392 243.191 1.39651C249.722 2.02124 253.852 8.89834 256.247 14.5557C256.923 8.92302 259.353 2.28792 267.161 3.1387C280.438 4.58528 280.476 11.2294 280.476 11.2676C280.524 11.2024 287.753 1.39659 298.425 1.39651C309.133 1.39658 312.032 10.6856 312.032 10.6856C312.059 10.6558 320.442 1.39651 328.82 1.39651C337.216 1.39704 341.559 12.4268 341.559 12.4268C341.562 12.4019 342.726 0.816736 353.137 0.816435C363.557 0.81652 367.9 12.7188 367.9 12.7188C367.911 12.6863 372.261 -0.632587 387.005 1.39651C401.708 3.42129 400.333 13.5051 400.321 13.5879C400.347 13.4822 404.126 -2.07808 415.951 0.234404C427.81 2.55549 427.822 12.1184 427.822 12.1377C427.832 12.107 431.601 -0.0520225 442.297 1.39651C447.018 2.03605 449.826 6.11871 451.491 10.4834C453.454 8.16136 459.932 1.39651 468.807 1.39651C479.5 1.39683 482.404 10.6576 482.413 10.6856C482.439 10.6545 490.859 0.600475 499.201 1.39651C505.099 1.96076 509.038 7.6253 511.511 12.8848C512.461 7.69843 515.13 2.37093 522.176 3.1387C535.474 4.5878 535.49 11.2515 535.49 11.2676C535.513 11.2368 542.749 1.39554 553.439 1.39554C564.147 1.39583 567.047 10.6856 567.047 10.6856C567.084 10.6441 575.461 1.39554 583.834 1.39554C592.23 1.39566 596.574 12.4268 596.574 12.4268C596.577 12.4019 597.741 0.816435 608.151 0.816435C618.571 0.816606 622.914 12.7188 622.914 12.7188C622.925 12.6863 627.275 -0.633447 642.018 1.39554C656.738 3.42239 655.343 13.5268 655.335 13.5879ZM14.3378 10.6856C11.0813 9.59689 9.61265 15.2566 13.2518 15.2569C15.6396 15.2568 17.5943 11.7733 14.3378 10.6856ZM270.347 10.6856C267.09 9.59674 265.623 15.2569 269.263 15.2569C271.65 15.2563 273.603 11.7732 270.347 10.6856ZM525.361 10.6856C522.105 9.59649 520.637 15.2568 524.276 15.2569C526.664 15.2568 528.617 11.7734 525.361 10.6856ZM186.43 9.66897C183.173 8.58156 181.706 14.2421 185.344 14.2422C187.733 14.2421 189.686 10.7581 186.43 9.66897ZM442.439 9.66897C439.183 8.58128 437.715 14.2422 441.353 14.2422C443.741 14.2419 445.696 10.7581 442.439 9.66897ZM697.453 9.66897C694.197 8.58172 692.729 14.241 696.367 14.2412C698.755 14.2411 700.71 10.7581 697.453 9.66897ZM43.4296 8.94339C40.1744 7.85573 38.7055 13.5153 42.3446 13.5157C44.7338 13.5155 46.6873 10.0325 43.4296 8.94339ZM72.5223 8.94339C69.2671 7.85574 67.7974 13.5157 71.4384 13.5157C73.8259 13.5151 75.7786 10.0324 72.5223 8.94339ZM99.8778 8.94339C96.6226 7.85572 95.1523 13.5153 98.7929 13.5157C101.181 13.5155 103.134 10.0326 99.8778 8.94339ZM131.72 8.94339C128.463 7.85574 126.995 13.5152 130.633 13.5157C133.02 13.5155 134.974 10.0327 131.72 8.94339ZM161.68 8.94339C158.423 7.85569 156.955 13.5157 160.594 13.5157C162.983 13.5154 164.936 10.0325 161.68 8.94339ZM213.811 8.94339C210.555 7.85569 209.086 13.5157 212.725 13.5157C215.113 13.5155 217.066 10.0325 213.811 8.94339ZM242.903 8.94339C239.647 7.85569 238.178 13.5157 241.817 13.5157C244.206 13.5153 246.159 10.0326 242.903 8.94339ZM299.44 8.94339C296.184 7.85573 294.714 13.5152 298.353 13.5157C300.741 13.5155 302.695 10.0327 299.44 8.94339ZM328.531 8.94339C325.275 7.85598 323.808 13.5157 327.447 13.5157C329.835 13.5153 331.788 10.0325 328.531 8.94339ZM355.889 8.94339C352.632 7.85569 351.163 13.5157 354.803 13.5157C357.19 13.5152 359.143 10.0326 355.889 8.94339ZM387.728 8.94339C384.472 7.85569 383.004 13.5157 386.642 13.5157C389.03 13.5155 390.985 10.0325 387.728 8.94339ZM417.689 8.94339C414.433 7.85574 412.966 13.5152 416.602 13.5157C418.991 13.5155 420.945 10.0327 417.689 8.94339ZM469.821 8.94339C466.565 7.85573 465.094 13.5152 468.733 13.5157C471.122 13.5155 473.077 10.0326 469.821 8.94339ZM498.913 8.94339C495.656 7.8557 494.189 13.5155 497.828 13.5157C500.216 13.5155 502.169 10.0326 498.913 8.94339ZM554.454 8.94241C551.197 7.85485 549.729 13.5157 553.368 13.5157C555.756 13.5154 557.709 10.0315 554.454 8.94241ZM583.546 8.94241C580.289 7.85473 578.821 13.5155 582.461 13.5157C584.849 13.5155 586.802 10.0315 583.546 8.94241ZM610.902 8.94241C607.646 7.85516 606.177 13.5155 609.816 13.5157C612.204 13.5155 614.157 10.0315 610.902 8.94241ZM642.742 8.94241C639.486 7.85556 638.019 13.5152 641.656 13.5157C644.044 13.5155 645.999 10.0315 642.742 8.94241ZM672.703 8.94241C669.446 7.85491 667.98 13.5157 671.617 13.5157C674.006 13.5155 675.959 10.0315 672.703 8.94241ZM724.835 8.94241C721.578 7.85542 720.109 13.5157 723.748 13.5157C726.137 13.5154 728.091 10.0315 724.835 8.94241ZM753.927 8.94241C750.67 7.85518 749.203 13.5157 752.843 13.5157C755.23 13.5151 757.183 10.0315 753.927 8.94241Z" fill="#1E97A0"/>
</svg>
