<svg width="770" height="33" viewBox="0 0 770 33" fill="none" xmlns="http://www.w3.org/2000/svg">
<path d="M101.226 32.0557C95.4568 32.0557 89.8265 31.9026 84.1605 31.7348C76.7179 31.4951 69.1155 31.4324 61.4248 31.4361C51.6695 31.4324 41.765 31.5393 31.8815 31.543C22.2061 31.5393 12.5497 31.4398 3.03618 31.0433H3.04249C1.2302 30.9659 -0.121664 30.0715 0.00868649 29.0388C0.139037 28.008 1.71375 27.2336 3.52184 27.311C12.7872 27.7038 22.2881 27.8034 31.8815 27.7997C41.6809 27.8034 51.5791 27.6964 61.4248 27.6909C69.1765 27.6964 76.8945 27.7554 84.5137 27.997C90.1524 28.1648 95.6691 28.3178 101.226 28.3178C101.686 28.3178 102.174 28.3141 102.634 28.3178C103.667 28.3105 104.714 28.3105 105.792 28.3105C106.638 28.3105 107.506 28.3105 108.387 28.3049C114.593 28.3105 121.09 28.2588 126.493 27.7277C131.328 27.2465 136.269 27.0215 141.204 27.0215C144.464 27.0215 147.732 27.1192 150.969 27.3073C155.801 27.5784 160.678 27.6743 165.594 27.6706C175.328 27.6743 185.235 27.3073 195.209 27.3073C197.017 27.3073 198.493 28.1445 198.493 29.1753C198.493 30.2061 197.017 31.0433 195.209 31.0433C185.514 31.0433 175.612 31.4103 165.594 31.4103C160.535 31.4103 155.439 31.3218 150.32 31.0267C147.284 30.8552 144.242 30.7593 141.204 30.7649C136.614 30.7593 132.047 30.9695 127.616 31.4158C121.437 32.0225 114.648 32.0465 108.387 32.0465C107.525 32.0465 106.652 32.0501 105.792 32.0501C104.737 32.0501 103.703 32.0501 102.641 32.0557H101.226Z" fill="#1E97A0"/>
<path d="M291.727 32.0557C285.96 32.0557 280.327 31.9026 274.663 31.7348C267.219 31.4951 259.621 31.4324 251.928 31.4361C242.172 31.4324 232.268 31.5393 222.387 31.543C212.709 31.5393 203.053 31.4398 193.539 31.0433H193.545C191.733 30.9659 190.381 30.0715 190.512 29.0388C190.64 28.008 192.217 27.2336 194.023 27.311C203.29 27.7038 212.789 27.8034 222.387 27.7997C232.182 27.8034 242.084 27.6964 251.928 27.6909C259.681 27.6964 267.397 27.7554 275.017 27.997C280.655 28.1648 286.172 28.3178 291.727 28.3178C292.191 28.3178 292.677 28.3141 293.137 28.3178C294.17 28.3105 295.219 28.3105 296.295 28.3105C297.14 28.3105 298.009 28.3105 298.888 28.3049C305.096 28.3105 311.595 28.2588 316.996 27.7277C321.833 27.2465 326.772 27.0215 331.706 27.0215C334.965 27.0215 338.237 27.1192 341.472 27.3073C346.304 27.5784 351.181 27.6743 356.097 27.6706C365.833 27.6743 375.738 27.3073 385.712 27.3073C387.52 27.3073 388.993 28.1445 388.993 29.1753C388.993 30.2061 387.52 31.0433 385.712 31.0433C376.017 31.0433 366.113 31.4103 356.097 31.4103C351.036 31.4103 345.94 31.3218 340.823 31.0267C337.787 30.8552 334.742 30.7593 331.706 30.7649C327.117 30.7593 322.55 30.9695 318.121 31.4158C311.939 32.0225 305.153 32.0465 298.888 32.0465C298.026 32.0465 297.157 32.0501 296.295 32.0501C295.24 32.0501 294.205 32.0501 293.144 32.0557H291.727Z" fill="#1E97A0"/>
<path d="M482.231 32.0557C476.464 32.0557 470.831 31.9026 465.165 31.7348C457.723 31.4951 450.124 31.4324 442.434 31.4361C432.674 31.4324 422.77 31.5393 412.89 31.543C403.213 31.5393 393.559 31.4398 384.043 31.0433H384.051C382.235 30.9659 380.885 30.0715 381.016 29.0388C381.144 28.008 382.721 27.2336 384.527 27.311C393.794 27.7038 403.293 27.8034 412.89 27.7997C422.686 27.8034 432.588 27.6964 442.434 27.6909C450.183 27.6964 457.903 27.7554 465.523 27.997C471.159 28.1648 476.676 28.3178 482.231 28.3178C482.693 28.3178 483.181 28.3141 483.641 28.3178C484.674 28.3105 485.721 28.3105 486.799 28.3105C487.646 28.3105 488.515 28.3105 489.394 28.3049C495.602 28.3105 502.096 28.2588 507.5 27.7277C512.339 27.2465 517.274 27.0215 522.212 27.0215C525.469 27.0215 528.738 27.1192 531.976 27.3073C536.807 27.5784 541.687 27.6743 546.601 27.6706C556.333 27.6743 566.239 27.3073 576.215 27.3073C578.023 27.3073 579.497 28.1445 579.497 29.1753C579.497 30.2061 578.023 31.0433 576.215 31.0433C566.523 31.0433 556.619 31.4103 546.601 31.4103C541.54 31.4103 536.444 31.3218 531.326 31.0267C528.293 30.8552 525.246 30.7593 522.212 30.7649C517.621 30.7593 513.052 30.9695 508.622 31.4158C502.445 32.0225 495.657 32.0465 489.394 32.0465C488.527 32.0465 487.661 32.0501 486.799 32.0501C485.746 32.0501 484.711 32.0501 483.648 32.0557H482.231Z" fill="#1E97A0"/>
<path d="M127.843 25.3759C127.602 25.381 127.348 25.3673 127.076 25.345C125.067 25.2147 123.346 24.2098 122.542 22.9529C121.705 21.7063 121.498 20.3465 121.488 18.9781C121.488 17.3336 121.842 15.648 122.271 14.1442C122.768 12.3059 123.58 10.7249 124.618 9.39428C122.742 6.75526 120.428 4.7507 119.667 4.67182C118.783 4.42832 117.998 4.32887 117.269 4.32887C114.704 4.24484 112.15 5.75726 109.546 8.03618C110.36 9.71151 110.663 11.6475 110.68 13.6246C110.677 16.0184 110.188 18.4482 109.152 20.4802C108.135 22.4522 106.445 24.3607 103.459 24.6574C103.038 24.6917 102.635 24.7088 102.248 24.7088C100.559 24.7105 98.9959 24.3607 97.8734 23.4742C96.7543 22.5808 96.3949 21.3856 96.405 20.3396C96.5644 16.2122 100.651 11.5189 102.409 9.57604C103.026 8.9553 103.647 8.31741 104.281 7.68294C103.123 6.77926 101.519 6.39173 99.5062 6.37801C96.4423 6.35572 92.7867 7.46002 90.8978 8.50603C90.1297 8.8747 88.9716 9.66007 87.7457 10.6752C88.9937 12.2768 89.7397 14.2385 89.7211 16.4625C89.7211 17.3302 89.6177 18.2407 89.3972 19.1959C88.6393 22.0424 86.5555 24.4739 83.0744 24.6368C80.7159 24.654 78.8626 23.0712 78.1658 21.0701C77.8741 20.331 77.7537 19.5851 77.7537 18.8632C77.8877 15.8144 79.746 12.9867 81.9808 10.6855C79.9444 9.45772 77.0857 8.79068 74.1879 8.79239C72.0193 8.78725 69.9015 9.16107 68.1178 9.83154C69.0436 10.6375 69.7506 11.5857 70.127 12.7003C70.5119 13.8852 70.6866 14.9758 70.6866 15.979C70.6917 17.9338 69.9744 19.5851 68.7333 20.7512C67.4887 21.9155 65.7542 22.5414 64.0264 22.5362C62.4614 22.5414 60.8879 22.0184 59.7518 21.0272C58.6056 20.0395 57.9562 18.618 57.9647 17.0164C57.9715 15.2536 58.6938 13.2611 60.269 11.0199C60.464 10.7455 60.6725 10.4832 60.8947 10.2294C58.7735 9.6172 56.1725 9.26738 53.5783 9.27081C51.3299 9.26396 49.0918 9.52803 47.1537 10.039C47.5047 10.9599 47.6878 11.9853 47.6556 13.1085C47.6556 13.7704 47.6064 14.4717 47.4878 15.2279C47.1317 17.4434 46.4365 19.165 45.4446 20.4511C44.4629 21.7063 43.0521 22.7026 41.1412 22.7283C39.4728 22.7403 38.0977 21.8297 37.4059 20.7683C36.6734 19.6897 36.3512 18.3728 36.3428 16.7849C36.3428 16.2087 36.3885 15.6069 36.4852 14.9707C36.8514 12.3334 38.5741 10.2397 40.8835 8.79068C40.7852 8.74267 40.6885 8.69465 40.5902 8.64664C38.8386 7.89043 36.0392 7.64693 33.2466 7.45659C33.0398 7.44459 32.8295 7.4343 32.6125 7.4343C30.4625 7.41544 26.8255 8.12192 23.3903 9.37713C23.7192 9.81954 23.9803 10.286 24.1702 10.785C24.3178 11.2685 24.35 11.7109 24.35 12.2099C24.3211 14.6432 23.3631 18.2665 22.1779 20.6208C21.7167 21.4182 21.4522 22.0578 20.3637 22.7523C19.5498 23.1981 18.6952 23.3079 17.9254 23.313C16.1468 23.289 14.4546 22.754 12.9082 21.9944C11.4314 21.1919 9.9393 20.2539 9.58323 18.4911C9.52558 18.1413 9.51202 17.8223 9.51202 17.5394C9.58154 13.7103 12.6302 10.7952 16.3604 8.64321C15.8806 8.37742 15.3651 8.12021 14.8209 7.887C11.8994 6.5169 8.27425 5.53949 5.84619 5.55835C4.88989 5.55835 4.16927 5.70068 3.74198 5.89273C2.70429 6.34714 1.40379 6.03334 0.844251 5.18968C0.283016 4.34258 0.671303 3.288 1.71069 2.83016C3.00102 2.26772 4.42021 2.08081 5.84619 2.08081C9.49337 2.10139 13.5 3.288 16.9369 4.85873C18.1628 5.45204 19.3192 6.06249 20.3416 6.7141C24.628 4.96504 29.1908 3.97734 32.6125 3.95676C32.9703 3.95676 33.3111 3.96705 33.6231 3.9962C36.4038 4.20883 39.6474 4.36316 42.5469 5.55492C43.4319 5.89959 44.2509 6.37972 44.9681 6.9816C47.6454 6.15337 50.6263 5.79499 53.5783 5.78813C57.1949 5.79327 60.7777 6.33857 63.767 7.41887C63.9297 7.47889 64.0942 7.5389 64.2553 7.60406C67.114 6.05049 70.6917 5.32343 74.1879 5.31314C77.925 5.31657 81.7061 6.1448 84.692 7.98646C84.7514 8.02418 84.8141 8.06191 84.8734 8.09963C86.2519 7.01762 87.5694 6.16195 88.5308 5.60465C91.2098 4.17797 95.3029 2.91933 99.5062 2.89875C102.129 2.88503 104.959 3.46291 107.101 5.06278C109.863 2.73928 113.052 0.925059 117.269 0.849609C118.5 0.849609 119.767 1.02623 121.042 1.37947C123.627 2.20599 125.662 4.17454 127.546 6.64551C130.201 4.81586 133.457 3.94133 136.619 3.9842C138.247 3.9842 139.851 4.19683 141.367 4.58951C142.701 5.00105 143.937 5.7727 145.163 6.80841C145.653 6.23225 146.182 5.70754 146.767 5.23255C149.349 3.14739 152.791 2.48892 157.015 2.50093H157.018C158.197 2.49578 159.156 3.276 159.16 4.23627C159.167 5.19311 158.204 5.97161 157.027 5.97847C153.18 6.00762 151.316 6.49633 149.773 7.71381C149.18 8.1768 148.602 8.8164 148.028 9.65492C148.149 9.78696 148.269 9.92071 148.39 10.0562C150.606 12.7243 152.578 15.8744 152.622 18.9918C152.701 21.0787 151.374 23.3868 148.551 24.4448C147.827 24.726 147.05 24.8923 146.275 24.8923C143.779 24.8597 142.297 23.325 141.604 21.9806C140.848 20.566 140.544 18.9644 140.541 17.4485C140.541 16.4471 140.673 15.4903 141.012 14.614C141.692 12.8941 142.338 11.3937 143.025 10.0768C141.592 8.75467 140.232 7.86128 140.071 7.90758C138.959 7.61778 137.782 7.46002 136.619 7.46002C134.087 7.50804 131.627 8.12878 129.679 9.74752C131.751 13.1805 133.299 16.9495 133.324 20.0618C133.321 21.3307 133.077 22.5602 132.17 23.644C131.305 24.7123 129.648 25.3759 127.983 25.3759H127.843ZM126.442 14.9295C126.057 16.2705 125.767 17.7452 125.772 18.9781C125.757 20.007 125.986 20.8455 126.283 21.2622C126.618 21.6703 126.732 21.7834 127.509 21.8846C127.626 21.8966 127.736 21.8983 127.843 21.8983C128.524 21.864 128.473 21.8109 128.65 21.6566C128.818 21.4851 129.055 20.9226 129.045 20.0618C129.065 18.4019 128.258 15.8847 127.008 13.3914C126.798 13.8681 126.608 14.3808 126.442 14.9295ZM146.275 21.4113C146.321 21.4113 146.441 21.4062 146.68 21.3119C147.983 20.7357 148.254 20.223 148.342 18.9918C148.374 17.5583 147.398 15.4423 145.995 13.4788C145.697 14.151 145.4 14.8798 145.093 15.672C144.937 16.0596 144.817 16.7232 144.824 17.4485C144.747 19.1033 145.58 21.0735 146.116 21.3325C146.233 21.4113 146.238 21.4113 146.253 21.4062C146.258 21.4062 146.265 21.4062 146.275 21.4113ZM105.771 11.7315C104.291 13.1273 100.522 18.275 100.683 20.3396C100.693 20.8335 100.822 20.9501 100.873 20.9878C100.914 21.0272 101.203 21.2227 102.248 21.2296C102.487 21.2296 102.755 21.2193 103.048 21.197C103.482 21.2141 104.428 20.662 105.198 19.1427C105.951 17.6869 106.406 15.6086 106.394 13.6246C106.407 12.8187 106.328 12.0264 106.185 11.2942C106.048 11.4383 105.91 11.5857 105.771 11.7315ZM83.0744 21.1576C83.0999 21.1713 83.5289 21.0924 84.0206 20.6243C84.5021 20.175 84.9803 19.4308 85.1871 18.5391C85.3635 17.7915 85.4364 17.1004 85.4364 16.4625C85.4245 15.3274 85.1888 14.3585 84.7632 13.5234C83.144 15.3394 81.9198 17.3079 82.0368 18.8632C82.0368 19.2799 82.1063 19.6503 82.2487 20.0207C82.7574 21.1713 83.0083 21.1661 83.0592 21.1576C83.0643 21.1541 83.0694 21.1541 83.0694 21.1541C83.0694 21.1541 83.0744 21.1541 83.0744 21.1576ZM13.7916 17.5394C13.7916 17.7177 13.8018 17.8738 13.834 18.0573L13.8493 18.0658C13.8781 18.1139 13.9476 18.203 14.0663 18.3128C14.2935 18.5254 14.6954 18.8032 15.1718 19.0381C16.0942 19.5285 17.371 19.8458 17.8966 19.8372C17.9916 19.7069 18.1103 19.5131 18.2256 19.2799C18.5189 18.7106 18.8411 17.9115 19.1157 17.0507C19.6787 15.3359 20.0805 13.2954 20.0703 12.2099C20.0754 11.8944 20.0297 11.6526 20.0246 11.6561C20.0161 11.5223 19.8787 11.3062 19.6329 11.0353C16.0671 12.9164 13.7153 15.3119 13.7916 17.5394ZM40.736 15.3839C40.658 15.9018 40.6207 16.3717 40.6275 16.7849C40.6207 17.6629 40.7784 18.3265 40.9615 18.7397C41.0565 18.9541 41.1497 19.093 41.2209 19.177C41.365 19.0844 41.5906 18.9009 41.8228 18.5923C42.3671 17.9029 42.9521 16.6306 43.2403 14.7889C43.3353 14.1716 43.3777 13.616 43.3777 13.1085C43.3607 12.5837 43.3116 12.1259 43.2336 11.7246C41.8245 12.6695 40.9785 13.8355 40.736 15.3839ZM63.9891 12.7346C62.6699 14.6106 62.2409 16.0596 62.2443 17.0164C62.3545 18.7483 63.2023 18.9832 64.0264 19.0553C64.9182 19.009 66.2967 18.5717 66.4053 15.979C66.4053 15.3102 66.2832 14.5146 65.9865 13.5886C65.8254 13.0519 65.3761 12.4826 64.647 11.9407C64.3994 12.1928 64.1756 12.4586 63.9891 12.7346Z" fill="#FBA538"/>
<path d="M281.483 25.3759C281.24 25.381 280.984 25.3673 280.714 25.345C278.705 25.2147 276.984 24.2098 276.182 22.9529C275.343 21.7063 275.136 20.3465 275.126 18.9781C275.126 17.3336 275.48 15.648 275.909 14.1442C276.404 12.3059 277.218 10.7249 278.256 9.39428C276.381 6.75526 274.066 4.7507 273.306 4.67182C272.421 4.42832 271.635 4.32886 270.909 4.32886C268.344 4.24484 265.79 5.75726 263.186 8.03618C263.999 9.71151 264.3 11.6475 264.317 13.6246C264.313 16.0184 263.827 18.4482 262.789 20.4802C261.775 22.4522 260.083 24.3607 257.099 24.6574C256.676 24.6917 256.273 24.7088 255.888 24.7088C254.197 24.7105 252.634 24.3607 251.513 23.4742C250.393 22.5808 250.033 21.3856 250.045 20.3396C250.203 16.2122 254.289 11.5189 256.049 9.57604C256.664 8.9553 257.287 8.31741 257.921 7.68294C256.761 6.77926 255.159 6.39173 253.144 6.37801C250.082 6.35572 246.425 7.46002 244.536 8.50603C243.768 8.8747 242.61 9.66007 241.386 10.6752C242.632 12.2768 243.376 14.2385 243.359 16.4625C243.359 17.3302 243.258 18.2407 243.034 19.1959C242.278 22.0424 240.194 24.4739 236.713 24.6368C234.352 24.654 232.501 23.0712 231.802 21.0701C231.512 20.331 231.392 19.5851 231.392 18.8632C231.526 15.8144 233.386 12.9867 235.621 10.6855C233.584 9.45772 230.724 8.79068 227.828 8.79239C225.658 8.78725 223.541 9.16107 221.754 9.83154C222.682 10.6375 223.391 11.5857 223.765 12.7003C224.148 13.8852 224.323 14.9758 224.323 15.979C224.328 17.9338 223.613 19.5851 222.371 20.7512C221.129 21.9155 219.391 22.5414 217.665 22.5362C216.1 22.5414 214.526 22.0184 213.39 21.0272C212.242 20.0395 211.596 18.618 211.605 17.0164C211.61 15.2536 212.334 13.2611 213.907 11.0199C214.1 10.7455 214.312 10.4832 214.533 10.2294C212.41 9.6172 209.811 9.26738 207.216 9.27081C204.97 9.26395 202.73 9.52803 200.794 10.039C201.145 10.9599 201.326 11.9853 201.296 13.1085C201.296 13.7704 201.245 14.4717 201.124 15.2279C200.77 17.4434 200.076 19.165 199.083 20.4511C198.099 21.7063 196.69 22.7026 194.779 22.7283C193.111 22.7403 191.736 21.8297 191.046 20.7683C190.313 19.6897 189.991 18.3728 189.983 16.7849C189.983 16.2087 190.027 15.6069 190.125 14.9707C190.49 12.3334 192.212 10.2397 194.52 8.79068C194.425 8.74267 194.328 8.69465 194.228 8.64664C192.477 7.89043 189.677 7.64693 186.883 7.45659C186.678 7.44459 186.468 7.4343 186.251 7.4343C184.101 7.41544 180.464 8.12192 177.028 9.37713C177.354 9.81954 177.62 10.286 177.808 10.785C177.956 11.2685 177.988 11.7109 177.988 12.2099C177.959 14.6432 177 18.2665 175.814 20.6208C175.355 21.4182 175.09 22.0578 174.002 22.7523C173.188 23.1981 172.333 23.3079 171.56 23.313C169.785 23.289 168.093 22.754 166.546 21.9944C165.071 21.1919 163.577 20.2539 163.22 18.4911C163.164 18.1413 163.15 17.8223 163.15 17.5394C163.218 13.7103 166.267 10.7952 170 8.64321C169.515 8.37742 169.002 8.12021 168.461 7.887C165.538 6.5169 161.912 5.53949 159.481 5.55835C158.526 5.55835 157.809 5.70068 157.382 5.89273C156.342 6.34714 155.04 6.03334 154.482 5.18968C153.921 4.34258 154.309 3.288 155.349 2.83016C156.639 2.26772 158.058 2.08081 159.481 2.08081C163.132 2.10139 167.136 3.288 170.575 4.85873C171.801 5.45204 172.957 6.06249 173.98 6.7141C178.266 4.96504 182.829 3.97734 186.251 3.95676C186.608 3.95676 186.949 3.96705 187.261 3.9962C190.042 4.20883 193.286 4.36316 196.185 5.55492C197.068 5.89959 197.891 6.37972 198.606 6.9816C201.285 6.15337 204.266 5.79499 207.216 5.78813C210.833 5.79327 214.418 6.33857 217.407 7.41887C217.57 7.47889 217.732 7.5389 217.893 7.60406C220.75 6.05049 224.328 5.32343 227.828 5.31314C231.563 5.31657 235.346 6.1448 238.33 7.98646C238.39 8.02418 238.451 8.06191 238.512 8.09963C239.892 7.01761 241.208 6.16195 242.169 5.60465C244.848 4.17797 248.941 2.91933 253.144 2.89875C255.767 2.88503 258.597 3.46291 260.737 5.06278C263.501 2.73928 266.689 0.925059 270.909 0.849609C272.137 0.849609 273.405 1.02623 274.678 1.37947C277.266 2.20599 279.299 4.17454 281.184 6.64551C283.841 4.81586 287.093 3.94133 290.259 3.9842C291.883 3.9842 293.489 4.19683 295.005 4.58951C296.339 5.00105 297.577 5.7727 298.801 6.80841C299.291 6.23225 299.818 5.70753 300.405 5.23255C302.989 3.14739 306.429 2.48892 310.653 2.50093H310.658C311.835 2.49578 312.793 3.276 312.796 4.23627C312.803 5.19311 311.843 5.97161 310.665 5.97847C306.818 6.00762 304.954 6.49633 303.411 7.71381C302.82 8.1768 302.24 8.8164 301.668 9.65492C301.789 9.78696 301.906 9.92071 302.028 10.0562C304.244 12.7243 306.216 15.8744 306.26 18.9918C306.338 21.0787 305.012 23.3867 302.189 24.4448C301.467 24.726 300.69 24.8923 299.915 24.8923C297.418 24.8597 295.936 23.325 295.242 21.9806C294.486 20.566 294.182 18.9644 294.179 17.4485C294.179 16.4471 294.311 15.4903 294.652 14.614C295.332 12.8941 295.973 11.3937 296.661 10.0768C295.23 8.75467 293.87 7.86128 293.709 7.90758C292.599 7.61778 291.42 7.46002 290.259 7.46002C287.726 7.50804 285.264 8.12878 283.319 9.74752C285.387 13.1805 286.934 16.9495 286.961 20.0618C286.958 21.3307 286.715 22.5602 285.81 23.644C284.943 24.7123 283.287 25.3759 281.623 25.3759H281.483ZM280.08 14.9295C279.695 16.2705 279.405 17.7452 279.411 18.9781C279.395 20.007 279.622 20.8455 279.923 21.2622C280.257 21.6703 280.37 21.7834 281.145 21.8846C281.265 21.8966 281.374 21.8983 281.483 21.8983C282.161 21.864 282.112 21.8109 282.29 21.6566C282.456 21.4851 282.691 20.9226 282.681 20.0618C282.702 18.4019 281.896 15.8847 280.645 13.3914C280.436 13.8681 280.246 14.3808 280.08 14.9295ZM299.915 21.4113C299.959 21.4113 300.08 21.4062 300.319 21.3119C301.621 20.7357 301.894 20.223 301.98 18.9918C302.013 17.5583 301.036 15.4422 299.634 13.4788C299.337 14.151 299.037 14.8798 298.732 15.672C298.577 16.0596 298.457 16.7232 298.462 17.4485C298.386 19.1033 299.218 21.0735 299.754 21.3325C299.869 21.4113 299.876 21.4113 299.891 21.4062C299.896 21.4062 299.905 21.4062 299.915 21.4113ZM259.41 11.7315C257.929 13.1273 254.16 18.275 254.321 20.3396C254.331 20.8335 254.458 20.9501 254.511 20.9878C254.553 21.0272 254.842 21.2227 255.888 21.2296C256.122 21.2296 256.393 21.2193 256.686 21.197C257.121 21.2141 258.067 20.662 258.836 19.1427C259.589 17.6869 260.042 15.6086 260.034 13.6246C260.044 12.8187 259.967 12.0264 259.825 11.2942C259.686 11.4383 259.549 11.5857 259.41 11.7315ZM236.713 21.1576C236.735 21.1713 237.167 21.0924 237.659 20.6243C238.14 20.175 238.617 19.4308 238.825 18.5391C239.002 17.7915 239.076 17.1004 239.076 16.4625C239.063 15.3274 238.829 14.3585 238.403 13.5234C236.784 15.3394 235.556 17.3079 235.675 18.8632C235.675 19.2799 235.744 19.6503 235.883 20.0207C236.396 21.1713 236.647 21.1661 236.697 21.1576C236.702 21.1541 236.706 21.1541 236.709 21.1541C236.709 21.1541 236.713 21.1541 236.713 21.1576ZM167.43 17.5394C167.43 17.7177 167.44 17.8738 167.471 18.0573L167.486 18.0658C167.516 18.1139 167.588 18.203 167.705 18.3128C167.932 18.5254 168.334 18.8032 168.81 19.0381C169.732 19.5285 171.009 19.8458 171.537 19.8372C171.628 19.7069 171.748 19.5131 171.865 19.2799C172.157 18.7106 172.479 17.9115 172.754 17.0507C173.317 15.3359 173.719 13.2954 173.71 12.2099C173.714 11.8944 173.668 11.6526 173.664 11.656C173.656 11.5223 173.517 11.3062 173.269 11.0353C169.704 12.9164 167.354 15.3119 167.43 17.5394ZM194.374 15.3839C194.296 15.9018 194.259 16.3716 194.266 16.7849C194.259 17.6629 194.417 18.3265 194.6 18.7397C194.693 18.9541 194.788 19.093 194.861 19.177C195.003 19.0844 195.225 18.9009 195.461 18.5923C196.005 17.9029 196.59 16.6306 196.879 14.7889C196.973 14.1716 197.018 13.616 197.018 13.1085C196.999 12.5837 196.951 12.1259 196.872 11.7246C195.464 12.6695 194.617 13.8355 194.374 15.3839ZM217.627 12.7346C216.308 14.6106 215.879 16.0596 215.884 17.0164C215.994 18.7483 216.839 18.9832 217.665 19.0553C218.556 19.009 219.937 18.5717 220.043 15.979C220.043 15.3102 219.921 14.5146 219.625 13.5886C219.464 13.0519 219.016 12.4826 218.287 11.9407C218.039 12.1928 217.815 12.4586 217.627 12.7346Z" fill="#FBA538"/>
<path d="M435.12 25.3759C434.877 25.381 434.621 25.3673 434.354 25.345C432.343 25.2147 430.623 24.2098 429.82 22.9529C428.98 21.7063 428.775 20.3465 428.765 18.9781C428.765 17.3336 429.119 15.648 429.545 14.1442C430.043 12.3059 430.856 10.7249 431.893 9.39428C430.018 6.75526 427.705 4.7507 426.946 4.67182C426.061 4.42832 425.272 4.32887 424.546 4.32887C421.981 4.24484 419.427 5.75726 416.823 8.03618C417.634 9.71151 417.939 11.6475 417.956 13.6246C417.951 16.0184 417.464 18.4482 416.426 20.4802C415.411 22.4522 413.718 24.3607 410.736 24.6574C410.312 24.6917 409.912 24.7088 409.525 24.7088C407.835 24.7105 406.271 24.3607 405.151 23.4742C404.028 22.5808 403.669 21.3856 403.681 20.3396C403.84 16.2122 407.925 11.5189 409.686 9.57604C410.302 8.9553 410.922 8.31741 411.557 7.68294C410.4 6.77926 408.794 6.39173 406.782 6.37801C403.718 6.35572 400.062 7.46002 398.175 8.50603C397.407 8.8747 396.247 9.66007 395.02 10.6752C396.271 12.2768 397.014 14.2385 396.997 16.4625C396.997 17.3302 396.893 18.2407 396.671 19.1959C395.915 22.0424 393.829 24.4739 390.352 24.6368C387.99 24.654 386.137 23.0712 385.441 21.0701C385.148 20.331 385.029 19.5851 385.029 18.8632C385.165 15.8144 387.022 12.9867 389.258 10.6855C387.222 9.45772 384.363 8.79068 381.464 8.79239C379.297 8.78725 377.179 9.16107 375.392 9.83154C376.319 10.6375 377.028 11.5857 377.404 12.7003C377.786 13.8852 377.962 14.9758 377.962 15.979C377.966 17.9338 377.252 19.5851 376.011 20.7512C374.764 21.9155 373.03 22.5414 371.302 22.5362C369.739 22.5414 368.165 22.0184 367.029 21.0272C365.88 20.0395 365.232 18.618 365.242 17.0164C365.245 15.2536 365.971 13.2611 367.545 11.0199C367.74 10.7455 367.948 10.4832 368.172 10.2294C366.047 9.6172 363.448 9.26738 360.854 9.27081C358.607 9.26396 356.367 9.52803 354.431 10.039C354.782 10.9599 354.963 11.9853 354.933 13.1085C354.933 13.7704 354.884 14.4717 354.763 15.2279C354.407 17.4434 353.714 19.165 352.72 20.4511C351.737 21.7063 350.328 22.7026 348.419 22.7283C346.75 22.7403 345.373 21.8297 344.683 20.7683C343.947 19.6897 343.625 18.3728 343.617 16.7849C343.617 16.2087 343.664 15.6069 343.761 14.9707C344.125 12.3334 345.85 10.2397 348.157 8.79068C348.061 8.74267 347.966 8.69465 347.864 8.64664C346.116 7.89043 343.315 7.64693 340.522 7.45659C340.317 7.44459 340.107 7.4343 339.89 7.4343C337.738 7.41544 334.103 8.12192 330.664 9.37713C330.993 9.81954 331.258 10.286 331.448 10.785C331.593 11.2685 331.627 11.7109 331.627 12.2099C331.598 14.6432 330.639 18.2665 329.454 20.6208C328.991 21.4182 328.73 22.0578 327.641 22.7523C326.827 23.1981 325.973 23.3079 325.199 23.313C323.422 23.289 321.732 22.754 320.184 21.9944C318.71 21.1919 317.213 20.2539 316.859 18.4911C316.803 18.1413 316.788 17.8223 316.788 17.5394C316.857 13.7103 319.906 10.7952 323.638 8.64321C323.155 8.37742 322.639 8.12021 322.1 7.887C319.175 6.5169 315.548 5.53949 313.12 5.55835C312.166 5.55835 311.445 5.70068 311.019 5.89273C309.98 6.34714 308.679 6.03334 308.12 5.18968C307.559 4.34258 307.947 3.288 308.986 2.83016C310.277 2.26772 311.696 2.08081 313.12 2.08081C316.769 2.10139 320.774 3.288 324.213 4.85873C325.438 5.45204 326.593 6.06249 327.617 6.7141C331.904 4.96504 336.465 3.97734 339.89 3.95676C340.248 3.95676 340.588 3.96705 340.899 3.9962C343.679 4.20883 346.925 4.36316 349.822 5.55492C350.708 5.89959 351.528 6.37972 352.244 6.9816C354.923 6.15337 357.902 5.79499 360.854 5.78813C364.472 5.79327 368.055 6.33857 371.044 7.41887C371.209 7.47889 371.368 7.5389 371.529 7.60406C374.388 6.05049 377.966 5.32343 381.464 5.31314C385.201 5.31657 388.983 6.1448 391.966 7.98646C392.029 8.02418 392.088 8.06191 392.149 8.09963C393.531 7.01762 394.843 6.16195 395.805 5.60465C398.487 4.17797 402.579 2.91933 406.782 2.89875C409.405 2.88503 412.237 3.46291 414.376 5.06278C417.137 2.73928 420.326 0.925059 424.546 0.849609C425.774 0.849609 427.042 1.02623 428.316 1.37947C430.903 2.20599 432.936 4.17454 434.82 6.64551C437.478 4.81586 440.731 3.94133 443.896 3.9842C445.522 3.9842 447.126 4.19683 448.64 4.58951C449.977 5.00105 451.214 5.7727 452.44 6.80841C452.929 6.23225 453.458 5.70754 454.043 5.23255C456.625 3.14739 460.067 2.48892 464.289 2.50093H464.294C465.471 2.49578 466.432 3.276 466.435 4.23627C466.442 5.19311 465.479 5.97161 464.304 5.97847C460.455 6.00762 458.593 6.49633 457.049 7.71381C456.457 8.1768 455.879 8.8164 455.306 9.65492C455.423 9.78696 455.545 9.92071 455.665 10.0562C457.883 12.7243 459.853 15.8744 459.897 18.9918C459.977 21.0787 458.649 23.3868 455.828 24.4448C455.102 24.726 454.327 24.8923 453.551 24.8923C451.055 24.8597 449.575 23.325 448.88 21.9806C448.125 20.566 447.82 18.9644 447.816 17.4485C447.816 16.4471 447.947 15.4903 448.289 14.614C448.968 12.8941 449.612 11.3937 450.299 10.0768C448.868 8.75467 447.51 7.86128 447.348 7.90758C446.234 7.61778 445.059 7.46002 443.896 7.46002C441.363 7.50804 438.901 8.12878 436.956 9.74752C439.027 13.1805 440.573 16.9495 440.598 20.0618C440.595 21.3307 440.354 22.5602 439.445 23.644C438.579 24.7123 436.924 25.3759 435.261 25.3759H435.12ZM433.719 14.9295C433.333 16.2705 433.043 17.7452 433.048 18.9781C433.033 20.007 433.26 20.8455 433.56 21.2622C433.894 21.6703 434.009 21.7834 434.784 21.8846C434.903 21.8966 435.011 21.8983 435.12 21.8983C435.798 21.864 435.749 21.8109 435.927 21.6566C436.095 21.4851 436.331 20.9226 436.32 20.0618C436.341 18.4019 435.532 15.8847 434.284 13.3914C434.076 13.8681 433.884 14.3808 433.719 14.9295ZM453.551 21.4113C453.598 21.4113 453.717 21.4062 453.958 21.3119C455.257 20.7357 455.531 20.223 455.619 18.9918C455.65 17.5583 454.673 15.4423 453.271 13.4788C452.974 14.151 452.674 14.8798 452.367 15.672C452.215 16.0596 452.094 16.7232 452.101 17.4485C452.023 19.1033 452.854 21.0735 453.391 21.3325C453.508 21.4113 453.514 21.4113 453.527 21.4062C453.532 21.4062 453.541 21.4062 453.551 21.4113ZM413.044 11.7315C411.568 13.1273 407.799 18.275 407.957 20.3396C407.97 20.8335 408.096 20.9501 408.15 20.9878C408.191 21.0272 408.481 21.2227 409.525 21.2296C409.761 21.2296 410.031 21.2193 410.322 21.197C410.76 21.2141 411.704 20.662 412.474 19.1427C413.225 17.6869 413.678 15.6086 413.669 13.6246C413.681 12.8187 413.605 12.0264 413.461 11.2942C413.323 11.4383 413.184 11.5857 413.044 11.7315ZM390.352 21.1576C390.374 21.1713 390.804 21.0924 391.296 20.6243C391.776 20.175 392.256 19.4308 392.463 18.5391C392.637 17.7915 392.714 17.1004 392.714 16.4625C392.7 15.3274 392.464 14.3585 392.041 13.5234C390.42 15.3394 389.194 17.3079 389.314 18.8632C389.314 19.2799 389.38 19.6503 389.523 20.0207C390.033 21.1713 390.284 21.1661 390.337 21.1576C390.342 21.1541 390.347 21.1541 390.347 21.1541C390.35 21.1541 390.352 21.1541 390.352 21.1576ZM321.067 17.5394C321.067 17.7177 321.077 17.8738 321.11 18.0573L321.123 18.0658C321.152 18.1139 321.225 18.203 321.34 18.3128C321.569 18.5254 321.969 18.8032 322.447 19.0381C323.37 19.5285 324.648 19.8458 325.174 19.8372C325.267 19.7069 325.384 19.5131 325.501 19.2799C325.796 18.7106 326.118 17.9115 326.391 17.0507C326.954 15.3359 327.358 13.2954 327.346 12.2099C327.351 11.8944 327.305 11.6526 327.302 11.6561C327.293 11.5223 327.154 11.3062 326.909 11.0353C323.343 12.9164 320.989 15.3119 321.067 17.5394ZM348.012 15.3839C347.935 15.9018 347.896 16.3717 347.903 16.7849C347.896 17.6629 348.052 18.3265 348.239 18.7397C348.33 18.9541 348.427 19.093 348.498 19.177C348.641 19.0844 348.864 18.9009 349.098 18.5923C349.643 17.9029 350.226 16.6306 350.516 14.7889C350.609 14.1716 350.655 13.616 350.655 13.1085C350.636 12.5837 350.586 12.1259 350.509 11.7246C349.1 12.6695 348.254 13.8355 348.012 15.3839ZM371.265 12.7346C369.944 14.6106 369.517 16.0596 369.522 17.0164C369.63 18.7483 370.476 18.9832 371.302 19.0553C372.194 19.009 373.572 18.5717 373.683 15.979C373.683 15.3102 373.557 14.5146 373.262 13.5886C373.101 13.0519 372.653 12.4826 371.923 11.9407C371.675 12.1928 371.453 12.4586 371.265 12.7346Z" fill="#FBA538"/>
<path d="M588.757 25.3759C588.516 25.381 588.259 25.3673 587.989 25.345C585.98 25.2147 584.259 24.2098 583.457 22.9529C582.617 21.7063 582.412 20.3465 582.402 18.9781C582.402 17.3336 582.756 15.648 583.182 14.1442C583.681 12.3059 584.494 10.7249 585.53 9.39428C583.655 6.75526 581.339 4.7507 580.581 4.67182C579.698 4.42832 578.911 4.32887 578.183 4.32887C575.618 4.24484 573.065 5.75726 570.458 8.03618C571.272 9.71151 571.576 11.6475 571.593 13.6246C571.588 16.0184 571.101 18.4482 570.065 20.4802C569.048 22.4522 567.356 24.3607 564.373 24.6574C563.949 24.6917 563.549 24.7088 563.162 24.7088C561.472 24.7105 559.909 24.3607 558.788 23.4742C557.665 22.5808 557.306 21.3856 557.318 20.3396C557.477 16.2122 561.562 11.5189 563.322 9.57604C563.939 8.9553 564.561 8.31741 565.194 7.68294C564.036 6.77926 562.432 6.39173 560.417 6.37801C557.355 6.35572 553.699 7.46002 551.812 8.50603C551.042 8.8747 549.884 9.66007 548.658 10.6752C549.908 12.2768 550.652 14.2385 550.636 16.4625C550.636 17.3302 550.529 18.2407 550.308 19.1959C549.55 22.0424 547.468 24.4739 543.989 24.6368C541.627 24.654 539.775 23.0712 539.078 21.0701C538.785 20.331 538.665 19.5851 538.665 18.8632C538.799 15.8144 540.659 12.9867 542.894 10.6855C540.857 9.45772 538 8.79068 535.102 8.79239C532.932 8.78725 530.814 9.16107 529.031 9.83154C529.956 10.6375 530.663 11.5857 531.041 12.7003C531.425 13.8852 531.599 14.9758 531.599 15.979C531.603 17.9338 530.889 19.5851 529.648 20.7512C528.403 21.9155 526.667 22.5414 524.941 22.5362C523.377 22.5414 521.801 22.0184 520.666 21.0272C519.517 20.0395 518.869 18.618 518.877 17.0164C518.883 15.2536 519.608 13.2611 521.183 11.0199C521.377 10.7455 521.585 10.4832 521.807 10.2294C519.685 9.6172 517.087 9.26738 514.489 9.27081C512.243 9.26396 510.005 9.52803 508.068 10.039C508.419 10.9599 508.602 11.9853 508.57 13.1085C508.57 13.7704 508.519 14.4717 508.402 15.2279C508.046 17.4434 507.351 19.165 506.359 20.4511C505.374 21.7063 503.965 22.7026 502.052 22.7283C500.387 22.7403 499.012 21.8297 498.32 20.7683C497.586 19.6897 497.262 18.3728 497.254 16.7849C497.254 16.2087 497.301 15.6069 497.398 14.9707C497.762 12.3334 499.487 10.2397 501.795 8.79068C501.698 8.74267 501.603 8.69465 501.501 8.64664C499.753 7.89043 496.952 7.64693 494.159 7.45659C493.954 7.44459 493.744 7.4343 493.525 7.4343C491.377 7.41544 487.737 8.12192 484.303 9.37713C484.63 9.81954 484.895 10.286 485.086 10.785C485.23 11.2685 485.264 11.7109 485.264 12.2099C485.236 14.6432 484.276 18.2665 483.089 20.6208C482.628 21.4182 482.367 22.0578 481.276 22.7523C480.463 23.1981 479.606 23.3079 478.837 23.313C477.058 23.289 475.369 22.754 473.819 21.9944C472.348 21.1919 470.85 20.2539 470.496 18.4911C470.44 18.1413 470.423 17.8223 470.423 17.5394C470.494 13.7103 473.543 10.7952 477.275 8.64321C476.792 8.37742 476.276 8.12021 475.737 7.887C472.812 6.5169 469.187 5.53949 466.757 5.55835C465.801 5.55835 465.082 5.70068 464.656 5.89273C463.617 6.34714 462.317 6.03334 461.759 5.18968C461.196 4.34258 461.584 3.288 462.625 2.83016C463.912 2.26772 465.333 2.08081 466.757 2.08081C470.404 2.10139 474.413 3.288 477.85 4.85873C479.074 5.45204 480.23 6.06249 481.254 6.7141C485.539 4.96504 490.104 3.97734 493.525 3.95676C493.881 3.95676 494.222 3.96705 494.536 3.9962C497.317 4.20883 500.564 4.36316 503.461 5.55492C504.345 5.89959 505.165 6.37972 505.881 6.9816C508.56 6.15337 511.539 5.79499 514.489 5.78813C518.109 5.79327 521.692 6.33857 524.68 7.41887C524.842 7.47889 525.007 7.5389 525.166 7.60406C528.027 6.05049 531.603 5.32343 535.102 5.31314C538.839 5.31657 542.621 6.1448 545.603 7.98646C545.666 8.02418 545.725 8.06191 545.784 8.09963C547.168 7.01762 548.48 6.16195 549.444 5.60465C552.124 4.17797 556.217 2.91933 560.417 2.89875C563.042 2.88503 565.87 3.46291 568.013 5.06278C570.776 2.73928 573.965 0.925059 578.183 0.849609C579.411 0.849609 580.679 1.02623 581.954 1.37947C584.54 2.20599 586.573 4.17454 588.457 6.64551C591.116 4.81586 594.369 3.94133 597.532 3.9842C599.159 3.9842 600.762 4.19683 602.279 4.58951C603.612 5.00105 604.85 5.7727 606.077 6.80841C606.564 6.23225 607.096 5.70754 607.68 5.23255C610.262 3.14739 613.702 2.48892 617.926 2.50093H617.931C619.11 2.49578 620.069 3.276 620.073 4.23627C620.079 5.19311 619.116 5.97161 617.94 5.97847C614.094 6.00762 612.231 6.49633 610.688 7.71381C610.092 8.1768 609.516 8.8164 608.943 9.65492C609.062 9.78696 609.182 9.92071 609.302 10.0562C611.52 12.7243 613.49 15.8744 613.534 18.9918C613.614 21.0787 612.285 23.3868 609.463 24.4448C608.739 24.726 607.965 24.8923 607.188 24.8923C604.694 24.8597 603.212 23.325 602.517 21.9806C601.76 20.566 601.457 18.9644 601.454 17.4485C601.454 16.4471 601.584 15.4903 601.925 14.614C602.605 12.8941 603.249 11.3937 603.936 10.0768C602.506 8.75467 601.147 7.86128 600.986 7.90758C599.872 7.61778 598.695 7.46002 597.532 7.46002C595.002 7.50804 592.54 8.12878 590.593 9.74752C592.664 13.1805 594.21 16.9495 594.237 20.0618C594.234 21.3307 593.991 22.5602 593.082 23.644C592.216 24.7123 590.561 25.3759 588.898 25.3759H588.757ZM587.357 14.9295C586.97 16.2705 586.682 17.7452 586.687 18.9781C586.672 20.007 586.899 20.8455 587.197 21.2622C587.533 21.6703 587.645 21.7834 588.421 21.8846C588.54 21.8966 588.649 21.8983 588.757 21.8983C589.437 21.864 589.386 21.8109 589.566 21.6566C589.732 21.4851 589.968 20.9226 589.958 20.0618C589.978 18.4019 589.169 15.8847 587.921 13.3914C587.713 13.8681 587.523 14.3808 587.357 14.9295ZM607.188 21.4113C607.234 21.4113 607.354 21.4062 607.593 21.3119C608.894 20.7357 609.168 20.223 609.253 18.9918C609.287 17.5583 608.31 15.4423 606.906 13.4788C606.611 14.151 606.313 14.8798 606.004 15.672C605.848 16.0596 605.731 16.7232 605.738 17.4485C605.66 19.1033 606.491 21.0735 607.029 21.3325C607.146 21.4113 607.151 21.4113 607.166 21.4062C607.171 21.4062 607.178 21.4062 607.188 21.4113ZM566.682 11.7315C565.204 13.1273 561.435 18.275 561.596 20.3396C561.606 20.8335 561.735 20.9501 561.786 20.9878C561.828 21.0272 562.115 21.2227 563.162 21.2296C563.398 21.2296 563.666 21.2193 563.959 21.197C564.397 21.2141 565.341 20.662 566.113 19.1427C566.862 17.6869 567.317 15.6086 567.308 13.6246C567.32 12.8187 567.24 12.0264 567.1 11.2942C566.962 11.4383 566.823 11.5857 566.682 11.7315ZM543.989 21.1576C544.013 21.1713 544.44 21.0924 544.933 20.6243C545.415 20.175 545.893 19.4308 546.1 18.5391C546.276 17.7915 546.351 17.1004 546.351 16.4625C546.339 15.3274 546.102 14.3585 545.678 13.5234C544.057 15.3394 542.831 17.3079 542.953 18.8632C542.953 19.2799 543.019 19.6503 543.161 20.0207C543.67 21.1713 543.921 21.1661 543.974 21.1576C543.979 21.1541 543.984 21.1541 543.984 21.1541C543.987 21.1541 543.989 21.1541 543.989 21.1576ZM474.706 17.5394C474.706 17.7177 474.715 17.8738 474.747 18.0573L474.762 18.0658C474.789 18.1139 474.862 18.203 474.979 18.3128C475.206 18.5254 475.608 18.8032 476.085 19.0381C477.007 19.5285 478.285 19.8458 478.811 19.8372C478.903 19.7069 479.021 19.5131 479.14 19.2799C479.435 18.7106 479.754 17.9115 480.028 17.0507C480.59 15.3359 480.997 13.2954 480.985 12.2099C480.99 11.8944 480.941 11.6526 480.937 11.6561C480.929 11.5223 480.791 11.3062 480.546 11.0353C476.98 12.9164 474.628 15.3119 474.706 17.5394ZM501.649 15.3839C501.572 15.9018 501.533 16.3717 501.54 16.7849C501.533 17.6629 501.691 18.3265 501.874 18.7397C501.969 18.9541 502.064 19.093 502.135 19.177C502.278 19.0844 502.502 18.9009 502.736 18.5923C503.28 17.9029 503.865 16.6306 504.155 14.7889C504.246 14.1716 504.29 13.616 504.29 13.1085C504.272 12.5837 504.224 12.1259 504.148 11.7246C502.737 12.6695 501.891 13.8355 501.649 15.3839ZM524.902 12.7346C523.583 14.6106 523.154 16.0596 523.157 17.0164C523.266 18.7483 524.113 18.9832 524.941 19.0553C525.831 19.009 527.209 18.5717 527.32 15.979C527.32 15.3102 527.196 14.5146 526.899 13.5886C526.736 13.0519 526.29 12.4826 525.561 11.9407C525.31 12.1928 525.09 12.4586 524.902 12.7346Z" fill="#FBA538"/>
<path d="M738.684 25.3759C738.444 25.381 738.186 25.3673 737.916 25.345C735.907 25.2147 734.186 24.2098 733.384 22.9529C732.545 21.7063 732.339 20.3465 732.329 18.9781C732.329 17.3336 732.684 15.648 733.109 14.1442C733.608 12.3059 734.422 10.7249 735.458 9.39428C733.582 6.75526 731.266 4.7507 730.508 4.67182C729.625 4.42832 728.838 4.32887 728.111 4.32887C725.545 4.24484 722.992 5.75726 720.386 8.03618C721.2 9.71151 721.503 11.6475 721.52 13.6246C721.515 16.0184 721.028 18.4482 719.992 20.4802C718.975 22.4522 717.283 24.3607 714.3 24.6574C713.876 24.6917 713.476 24.7088 713.09 24.7088C711.399 24.7105 709.836 24.3607 708.715 23.4742C707.593 22.5808 707.233 21.3856 707.245 20.3396C707.404 16.2122 711.489 11.5189 713.249 9.57604C713.866 8.9553 714.489 8.31741 715.121 7.68294C713.963 6.77926 712.359 6.39173 710.345 6.37801C707.282 6.35572 703.627 7.46002 701.74 8.50603C700.97 8.8747 699.812 9.66007 698.586 10.6752C699.835 12.2768 700.58 14.2385 700.563 16.4625C700.563 17.3302 700.456 18.2407 700.235 19.1959C699.478 22.0424 697.395 24.4739 693.916 24.6368C691.554 24.654 689.703 23.0712 689.006 21.0701C688.712 20.331 688.592 19.5851 688.592 18.8632C688.726 15.8144 690.586 12.9867 692.821 10.6855C690.784 9.45772 687.927 8.79068 685.03 8.79239C682.859 8.78725 680.742 9.16107 678.958 9.83154C679.884 10.6375 680.591 11.5857 680.969 12.7003C681.352 13.8852 681.527 14.9758 681.527 15.979C681.53 17.9338 680.816 19.5851 679.575 20.7512C678.33 21.9155 676.594 22.5414 674.868 22.5362C673.305 22.5414 671.728 22.0184 670.593 21.0272C669.444 20.0395 668.796 18.618 668.805 17.0164C668.81 15.2536 669.535 13.2611 671.111 11.0199C671.304 10.7455 671.513 10.4832 671.735 10.2294C669.612 9.6172 667.014 9.26738 664.417 9.27081C662.17 9.26396 659.932 9.52803 657.995 10.039C658.346 10.9599 658.529 11.9853 658.497 13.1085C658.497 13.7704 658.446 14.4717 658.329 15.2279C657.973 17.4434 657.278 19.165 656.286 20.4511C655.301 21.7063 653.892 22.7026 651.98 22.7283C650.314 22.7403 648.939 21.8297 648.248 20.7683C647.513 19.6897 647.19 18.3728 647.181 16.7849C647.181 16.2087 647.229 15.6069 647.325 14.9707C647.69 12.3334 649.414 10.2397 651.722 8.79068C651.625 8.74267 651.53 8.69465 651.428 8.64664C649.68 7.89043 646.879 7.64693 644.087 7.45659C643.881 7.44459 643.671 7.4343 643.452 7.4343C641.304 7.41544 637.664 8.12192 634.23 9.37713C634.558 9.81954 634.822 10.286 635.014 10.785C635.158 11.2685 635.192 11.7109 635.192 12.2099C635.163 14.6432 634.203 18.2665 633.016 20.6208C632.555 21.4182 632.294 22.0578 631.204 22.7523C630.39 23.1981 629.534 23.3079 628.764 23.313C626.985 23.289 625.296 22.754 623.747 21.9944C622.275 21.1919 620.778 20.2539 620.423 18.4911C620.367 18.1413 620.35 17.8223 620.35 17.5394C620.422 13.7103 623.47 10.7952 627.202 8.64321C626.719 8.37742 626.203 8.12021 625.664 7.887C622.739 6.5169 619.114 5.53949 616.684 5.55835C615.728 5.55835 615.009 5.70068 614.584 5.89273C613.544 6.34714 612.244 6.03334 611.686 5.18968C611.123 4.34258 611.511 3.288 612.552 2.83016C613.839 2.26772 615.26 2.08081 616.684 2.08081C620.332 2.10139 624.34 3.288 627.777 4.85873C629.001 5.45204 630.158 6.06249 631.182 6.7141C635.466 4.96504 640.031 3.97734 643.452 3.95676C643.809 3.95676 644.149 3.96705 644.463 3.9962C647.244 4.20883 650.491 4.36316 653.389 5.55492C654.272 5.89959 655.093 6.37972 655.808 6.9816C658.487 6.15337 661.466 5.79499 664.417 5.78813C668.037 5.79327 671.619 6.33857 674.607 7.41887C674.77 7.47889 674.934 7.5389 675.094 7.60406C677.954 6.05049 681.53 5.32343 685.03 5.31314C688.767 5.31657 692.548 6.1448 695.53 7.98646C695.593 8.02418 695.652 8.06191 695.712 8.09963C697.095 7.01762 698.408 6.16195 699.371 5.60465C702.051 4.17797 706.145 2.91933 710.345 2.89875C712.969 2.88503 715.797 3.46291 717.941 5.06278C720.703 2.73928 723.892 0.925059 728.111 0.849609C729.338 0.849609 730.607 1.02623 731.882 1.37947C734.467 2.20599 736.5 4.17454 738.384 6.64551C741.043 4.81586 744.297 3.94133 747.459 3.9842C749.087 3.9842 750.689 4.19683 752.206 4.58951C753.539 5.00105 754.777 5.7727 756.005 6.80841C756.491 6.23225 757.024 5.70754 757.607 5.23255C760.189 3.14739 763.63 2.48892 767.853 2.50093H767.858C769.037 2.49578 769.996 3.276 770 4.23627C770.007 5.19311 769.044 5.97161 767.867 5.97847C764.021 6.00762 762.158 6.49633 760.615 7.71381C760.02 8.1768 759.443 8.8164 758.87 9.65492C758.989 9.78696 759.109 9.92071 759.23 10.0562C761.447 12.7243 763.418 15.8744 763.462 18.9918C763.541 21.0787 762.212 23.3868 759.391 24.4448C758.667 24.726 757.892 24.8923 757.115 24.8923C754.621 24.8597 753.139 23.325 752.444 21.9806C751.688 20.566 751.384 18.9644 751.381 17.4485C751.381 16.4471 751.511 15.4903 751.852 14.614C752.532 12.8941 753.176 11.3937 753.863 10.0768C752.434 8.75467 751.074 7.86128 750.913 7.90758C749.799 7.61778 748.622 7.46002 747.459 7.46002C744.929 7.50804 742.467 8.12878 740.521 9.74752C742.591 13.1805 744.137 16.9495 744.164 20.0618C744.161 21.3307 743.919 22.5602 743.01 23.644C742.143 24.7123 740.488 25.3759 738.825 25.3759H738.684ZM737.284 14.9295C736.897 16.2705 736.609 17.7452 736.614 18.9781C736.599 20.007 736.826 20.8455 737.124 21.2622C737.46 21.6703 737.572 21.7834 738.349 21.8846C738.467 21.8966 738.576 21.8983 738.684 21.8983C739.364 21.864 739.313 21.8109 739.493 21.6566C739.659 21.4851 739.895 20.9226 739.885 20.0618C739.905 18.4019 739.096 15.8847 737.848 13.3914C737.64 13.8681 737.45 14.3808 737.284 14.9295ZM757.115 21.4113C757.161 21.4113 757.281 21.4062 757.52 21.3119C758.821 20.7357 759.096 20.223 759.18 18.9918C759.214 17.5583 758.238 15.4423 756.834 13.4788C756.539 14.151 756.24 14.8798 755.932 15.672C755.776 16.0596 755.659 16.7232 755.665 17.4485C755.587 19.1033 756.418 21.0735 756.956 21.3325C757.073 21.4113 757.078 21.4113 757.093 21.4062C757.098 21.4062 757.105 21.4062 757.115 21.4113ZM716.61 11.7315C715.131 13.1273 711.362 18.275 711.523 20.3396C711.533 20.8335 711.662 20.9501 711.713 20.9878C711.755 21.0272 712.042 21.2227 713.09 21.2296C713.325 21.2296 713.593 21.2193 713.887 21.197C714.324 21.2141 715.268 20.662 716.04 19.1427C716.789 17.6869 717.244 15.6086 717.235 13.6246C717.247 12.8187 717.168 12.0264 717.027 11.2942C716.889 11.4383 716.75 11.5857 716.61 11.7315ZM693.916 21.1576C693.94 21.1713 694.367 21.0924 694.861 20.6243C695.342 20.175 695.82 19.4308 696.027 18.5391C696.203 17.7915 696.278 17.1004 696.278 16.4625C696.266 15.3274 696.029 14.3585 695.605 13.5234C693.984 15.3394 692.758 17.3079 692.88 18.8632C692.88 19.2799 692.946 19.6503 693.089 20.0207C693.597 21.1713 693.848 21.1661 693.901 21.1576C693.906 21.1541 693.911 21.1541 693.911 21.1541C693.914 21.1541 693.916 21.1541 693.916 21.1576ZM624.633 17.5394C624.633 17.7177 624.642 17.8738 624.674 18.0573L624.689 18.0658C624.716 18.1139 624.789 18.203 624.906 18.3128C625.133 18.5254 625.535 18.8032 626.012 19.0381C626.934 19.5285 628.213 19.8458 628.738 19.8372C628.83 19.7069 628.949 19.5131 629.067 19.2799C629.362 18.7106 629.681 17.9115 629.956 17.0507C630.517 15.3359 630.924 13.2954 630.912 12.2099C630.917 11.8944 630.868 11.6526 630.865 11.6561C630.856 11.5223 630.719 11.3062 630.473 11.0353C626.907 12.9164 624.555 15.3119 624.633 17.5394ZM651.576 15.3839C651.5 15.9018 651.461 16.3717 651.467 16.7849C651.461 17.6629 651.618 18.3265 651.801 18.7397C651.896 18.9541 651.991 19.093 652.063 19.177C652.205 19.0844 652.429 18.9009 652.663 18.5923C653.207 17.9029 653.792 16.6306 654.082 14.7889C654.174 14.1716 654.218 13.616 654.218 13.1085C654.199 12.5837 654.152 12.1259 654.075 11.7246C652.665 12.6695 651.818 13.8355 651.576 15.3839ZM674.829 12.7346C673.51 14.6106 673.081 16.0596 673.084 17.0164C673.193 18.7483 674.041 18.9832 674.868 19.0553C675.758 19.009 677.137 18.5717 677.247 15.979C677.247 15.3102 677.123 14.5146 676.826 13.5886C676.664 13.0519 676.218 12.4826 675.489 11.9407C675.238 12.1928 675.017 12.4586 674.829 12.7346Z" fill="#FBA538"/>
<path d="M672.735 32.0557C666.966 32.0557 661.336 31.9026 655.668 31.7348C648.225 31.4951 640.627 31.4324 632.934 31.4361C623.177 31.4324 613.272 31.5393 603.389 31.543C593.716 31.5393 584.061 31.4398 574.548 31.0433H574.554C572.738 30.9659 571.39 30.0715 571.516 29.0388C571.648 28.008 573.223 27.2336 575.031 27.311C584.297 27.7038 593.798 27.8034 603.389 27.7997C613.188 27.8034 623.091 27.6964 632.934 27.6909C640.686 27.6964 648.404 27.7554 656.025 27.997C661.662 28.1648 667.179 28.3178 672.735 28.3178C673.194 28.3178 673.686 28.3141 674.146 28.3178C675.178 28.3105 676.225 28.3105 677.304 28.3105C678.149 28.3105 679.017 28.3105 679.896 28.3049C686.1 28.3105 692.599 28.2588 698.002 27.7277C702.842 27.2465 707.776 27.0215 712.711 27.0215C715.972 27.0215 719.241 27.1192 722.481 27.3073C727.312 27.5784 732.19 27.6743 737.103 27.6706C746.837 27.6743 756.744 27.3073 766.718 27.3073C768.526 27.3073 770 28.1445 770 29.1753C770 30.2061 768.526 31.0433 766.718 31.0433C757.026 31.0433 747.119 31.4103 737.103 31.4103C732.045 31.4103 726.948 31.3218 721.829 31.0267C718.793 30.8552 715.751 30.7593 712.711 30.7649C708.125 30.7593 703.557 30.9695 699.125 31.4158C692.948 32.0225 686.159 32.0465 679.896 32.0465C679.032 32.0465 678.166 32.0501 677.304 32.0501C676.248 32.0501 675.214 32.0501 674.15 32.0557H672.735Z" fill="#1E97A0"/>
</svg>
