<svg width="770" height="28" viewBox="0 0 770 28" fill="none" xmlns="http://www.w3.org/2000/svg">
<path d="M69.9377 20.9616C69.2071 20.9224 68.5447 20.57 68.1829 20.0292C65.0927 15.4035 61.9939 12.4979 58.1102 7.25457C58.0176 7.35699 57.925 7.46243 57.8288 7.57239C56.6386 8.83916 55.118 10.2761 53.5555 11.7508C50.4514 14.6428 47.0903 17.8948 46.4139 19.2158C46.0713 19.8289 45.367 20.2401 44.5717 20.2808C43.78 20.3184 43.0249 19.9825 42.602 19.4071C39.1605 14.6925 36.8464 9.82727 33.9433 4.8355C29.5843 8.09807 25.3598 12.9151 19.8175 16.6311C18.7409 17.339 18.0155 17.8662 17.3811 18.2804C16.7362 18.6525 16.2066 19.1375 14.8468 19.2038C13.3244 19.1496 12.6218 18.3467 12.2233 17.9536C11.7706 17.4761 11.3494 16.9625 10.6573 16.2575C7.01136 12.5416 4.0663 8.7533 0.516504 4.31131V4.31584C-0.163393 3.46329 0.0847958 2.28991 1.0758 1.70247C2.06506 1.11352 3.42485 1.3289 4.11 2.18145C7.67203 6.64904 10.5454 10.3259 13.9869 13.8355C14.4535 14.3099 14.8293 14.7241 15.1142 15.042C15.5983 14.7151 16.2747 14.2391 17.1591 13.6532C22.8727 9.89054 27.4415 4.17876 33.3875 0.417614C33.8961 0.0937662 34.5463 -0.014687 35.1615 0.107321C35.7768 0.232341 36.3011 0.578788 36.593 1.05929C39.6307 6.01491 41.8277 10.6286 44.5647 14.8808C46.1011 13.1893 48.0936 11.3501 50.0424 9.49439C52.8808 6.91264 55.6808 3.98596 55.9307 3.40605C55.9342 3.40304 55.9342 3.39853 55.9342 3.39551C56.0531 2.61225 56.7295 1.97058 57.6331 1.8064C58.5507 1.63167 59.498 1.98866 59.9786 2.68606C63.8308 8.3677 66.9594 11.3622 70.2156 15.7002C73.7846 11.2251 76.2263 6.95331 79.3828 2.94062C79.7638 2.44656 80.3983 2.14531 81.0869 2.1197C81.7668 2.08958 82.4257 2.34413 82.8644 2.79903C86.5401 6.76352 90.0217 12.7856 93.963 15.405C97.4027 11.9827 100.82 6.64302 104.537 2.65894C104.965 2.20254 105.623 1.94196 106.31 1.96756C106.993 1.98865 107.629 2.28539 108.022 2.77192C110.976 6.45926 114.444 11.0413 117.293 13.9936C120.649 10.252 125.513 4.78127 127.551 2.19501C128.225 1.33644 129.58 1.11351 130.574 1.69493C131.571 2.27785 131.831 3.44672 131.158 4.30379C128.591 7.56486 122.332 14.5223 119.145 18.0726C118.759 18.4958 118.182 18.761 117.558 18.7941C116.94 18.8302 116.319 18.6284 115.881 18.2503C112.776 15.5556 109.286 11.0353 106.14 7.04971C102.948 10.9027 99.6993 15.8192 95.8664 19.1586C95.1865 19.743 94.136 19.8756 93.2901 19.4855C87.8335 16.8465 84.434 11.2176 81.3176 7.28017C78.5753 11.1091 75.9379 15.5029 71.8061 20.2175C71.3918 20.686 70.7469 20.9631 70.0652 20.9631C70.0215 20.9631 69.9796 20.9631 69.9377 20.9616Z" fill="#1E97A0"/>
<path d="M14.661 8.18761C13.878 7.71408 13.4857 6.73108 13.5271 6.14035C13.6101 4.81199 14.203 4.18375 14.7043 3.51331C15.3421 2.85538 15.5357 2.45218 16.7076 1.93334V1.93647C17.819 1.54265 19.067 2.03492 19.5008 3.03979C19.5976 3.26327 19.646 3.493 19.6512 3.71805C20.0349 4.0978 20.2441 4.60571 20.2164 5.12611C20.2216 5.14799 20.2216 5.18862 20.2078 5.2652C20.1559 6.05128 19.8742 6.69827 19.4075 7.33432C18.9201 7.96725 18.042 8.73926 16.5866 8.76895H16.5486C15.8814 8.76895 15.1969 8.5408 14.661 8.18761Z" fill="#EE5938"/>
<path d="M32.2684 19.2146C32.1285 19.2032 31.9629 19.1901 31.7638 19.1787C30.7151 19.1101 29.836 18.4974 29.5739 17.6577C29.4654 17.3048 29.426 16.965 29.426 16.6529C29.4379 15.555 29.907 14.1206 31.7559 13.3249C32.98 12.8397 34.4465 13.2628 35.0398 14.2774C35.4597 14.9946 35.3197 15.8131 34.7698 16.4029C34.9176 16.7019 34.9827 17.0319 34.9452 17.375C34.821 18.4272 33.7527 19.2212 32.5049 19.2212C32.4261 19.2212 32.3492 19.2195 32.2684 19.2146Z" fill="#EE5938"/>
<path d="M45.8321 6.89797C45.6087 6.74505 44.8618 6.835 43.6431 5.96392C43.2329 5.65357 42.7944 4.9624 42.8178 4.26823C42.8361 3.42264 43.2329 2.91438 43.5814 2.50507C44.0048 2.0238 44.6634 1.76442 45.3436 1.8049C46.1605 1.8109 47.1275 2.40012 47.4476 3.00883V3.01183C47.5576 3.18724 47.631 3.37166 47.6727 3.56057C48.5246 4.02235 48.9064 4.98489 48.5313 5.84548C48.2062 6.58163 47.4193 7.02691 46.594 7.02691C46.3389 7.02691 46.0805 6.98493 45.8321 6.89797Z" fill="#EE5938"/>
<path d="M58.9634 20.0923C56.6586 19.8624 55.5749 18.699 55.3726 16.8042C55.3402 16.1076 55.7485 15.1689 56.5117 14.6482C57.2653 14.1188 58.0686 13.9986 58.7707 13.9951C58.9805 13.9951 59.0263 14.0073 59.0263 14.0038V14.0073C60.2283 14.0648 61.1766 14.9286 61.2739 15.9927C61.2987 16.0136 61.3273 16.038 61.354 16.0606C62.287 16.8983 62.308 18.2741 61.3903 19.1292C60.8351 19.6743 59.9135 20.0923 59.0073 20.0923H58.9634Z" fill="#EE5938"/>
<path d="M67.5436 7.1916C67.2316 6.59862 67.094 5.98799 67.0888 5.31997C67.0661 4.26939 67.5558 2.6685 69.5006 1.9431V1.94604C70.6054 1.55023 71.881 1.99165 72.3463 2.926C72.6826 3.6102 72.4962 4.3665 71.9385 4.87855C72.8586 5.37147 73.2159 6.38379 72.7279 7.23132C72.4073 7.77869 71.7277 8.70715 70.1419 8.76895C68.3225 8.63947 67.8625 7.69482 67.5436 7.1916Z" fill="#EE5938"/>
<path d="M79.6427 18.3055C79.606 17.039 80.877 16.0106 82.0344 15.8V15.8029C83.1449 15.5372 84.2906 16.1021 84.5983 17.0709C84.6602 17.2685 84.682 17.4689 84.6686 17.6635C85.0516 17.9119 85.3392 18.2793 85.4513 18.7165C85.6988 19.6897 84.988 20.657 83.8691 20.8763C83.5513 20.9373 83.2352 20.9634 82.9559 20.9634C81.3219 20.9591 79.6963 19.9758 79.6427 18.3055Z" fill="#EE5938"/>
<path d="M94.52 6.15435C93.3731 6.11757 92.7836 5.71747 92.2827 5.3115C91.8137 4.88199 91.3836 4.32893 91.3605 3.46108C91.2986 2.00339 93.1253 0.96639 94.3678 0.948739C95.444 0.819298 96.4494 1.36207 96.7768 2.19314C96.9892 2.44026 97.1255 2.73444 97.168 3.05657C97.1874 3.2272 97.2175 3.40812 97.2175 3.65524C97.2069 4.10975 97.1397 4.63487 96.6865 5.20853C96.267 5.76896 95.3289 6.15582 94.6121 6.15582C94.582 6.15582 94.5501 6.15582 94.52 6.15435Z" fill="#EE5938"/>
<path d="M107.768 21.8345C106.563 21.7979 105.819 21.3754 105.148 20.849C104.514 20.3153 103.929 19.5477 103.914 18.4848C103.891 17.6529 104.392 16.7698 105.138 16.2098L105.141 16.2156C106.011 15.5372 107.368 15.5855 108.167 16.3282C108.403 16.5475 108.564 16.8034 108.652 17.0724C109.635 17.1558 110.449 17.8137 110.565 18.6807C110.579 18.8211 110.608 18.9907 110.608 19.2392C110.608 19.7817 110.466 20.4411 109.893 21.0157C109.34 21.583 108.466 21.8345 107.827 21.8345H107.768Z" fill="#EE5938"/>
<path d="M117.844 5.008C117.252 4.80757 116.785 4.38428 116.589 3.86974C116.491 3.6364 116.467 3.38064 116.467 3.25051L116.472 3.22508C116.472 1.89985 117.55 0.119919 119.935 0.0585938C120.295 0.0660725 120.372 0.0989794 120.393 0.0989794C121.016 0.205177 121.523 0.529748 121.829 0.960522C122.044 1.0727 122.24 1.22228 122.407 1.40327C122.393 1.41524 123.157 2.02848 123.162 3.07401C123.162 3.17572 123.154 3.26696 123.143 3.36119C123.061 4.03876 122.552 4.63108 121.815 4.89433C121.147 5.13215 120.412 5.28472 119.595 5.28472C119.04 5.28472 118.446 5.21441 117.844 5.008Z" fill="#EE5938"/>
<path d="M129.27 20.0834C128.615 19.4872 128.236 18.5735 128.199 17.6807C128.182 17.5244 128.194 17.447 128.19 17.447C128.088 16.0161 129.238 14.2515 130.943 14.0259H130.948C131.886 13.8599 132.788 14.3804 133.141 15.228C133.773 15.3537 134.334 15.7824 134.601 16.4221C134.785 16.8621 134.88 17.3197 134.88 17.779C134.828 19.9029 133.004 20.9633 131.545 20.9633H131.525C130.779 20.9633 129.942 20.7071 129.27 20.0834Z" fill="#EE5938"/>
<path d="M197.15 20.9616C196.42 20.9224 195.759 20.57 195.396 20.0292C192.307 15.4035 189.207 12.4979 185.323 7.25457C185.232 7.35699 185.138 7.46243 185.042 7.57239C183.851 8.83916 182.333 10.2761 180.77 11.7508C177.664 14.6428 174.305 17.8948 173.628 19.2158C173.284 19.8289 172.58 20.2401 171.786 20.2808C170.995 20.3184 170.238 19.9825 169.815 19.4071C166.373 14.6925 164.059 9.82727 161.156 4.8355C156.799 8.09807 152.574 12.9151 147.032 16.6311C145.955 17.339 145.228 17.8662 144.594 18.2804C143.949 18.6525 143.421 19.1375 142.061 19.2038C140.539 19.1496 139.835 18.3467 139.438 17.9536C138.983 17.4761 138.562 16.9625 137.87 16.2575C134.224 12.5416 131.281 8.7533 127.731 4.31131V4.31584C127.049 3.46329 127.299 2.28991 128.289 1.70247C129.28 1.11352 130.639 1.3289 131.323 2.18145C134.885 6.64904 137.76 10.3259 141.2 13.8355C141.666 14.3099 142.044 14.7241 142.329 15.042C142.811 14.7151 143.489 14.2391 144.372 13.6532C150.087 9.89054 154.654 4.17876 160.602 0.417614C161.111 0.0937662 161.759 -0.014687 162.374 0.107321C162.99 0.232341 163.514 0.578788 163.806 1.05929C166.844 6.01491 169.042 10.6286 171.778 14.8808C173.316 13.1893 175.308 11.3501 177.255 9.49439C180.094 6.91264 182.894 3.98596 183.145 3.40605C183.147 3.40304 183.147 3.39853 183.147 3.39551C183.266 2.61225 183.944 1.97058 184.846 1.8064C185.765 1.63167 186.713 1.98866 187.193 2.68606C191.045 8.3677 194.172 11.3622 197.43 15.7002C200.997 11.2251 203.441 6.95331 206.596 2.94062C206.977 2.44656 207.613 2.14531 208.3 2.1197C208.981 2.08958 209.639 2.34413 210.077 2.79903C213.755 6.76352 217.235 12.7856 221.176 15.405C224.615 11.9827 228.032 6.64302 231.75 2.65894C232.178 2.20254 232.835 1.94196 233.524 1.96756C234.207 1.98865 234.842 2.28539 235.235 2.77192C238.189 6.45926 241.658 11.0413 244.506 13.9936C247.861 10.252 252.727 4.78127 254.763 2.19501C255.44 1.33644 256.794 1.11351 257.789 1.69493C258.785 2.27785 259.044 3.44672 258.373 4.30379C255.803 7.56486 249.546 14.5223 246.358 18.0726C245.974 18.4958 245.397 18.761 244.773 18.7941C244.152 18.8302 243.534 18.6284 243.095 18.2503C239.989 15.5556 236.501 11.0353 233.355 7.04971C230.161 10.9027 226.914 15.8192 223.081 19.1586C222.401 19.743 221.349 19.8756 220.505 19.4855C215.046 16.8465 211.647 11.2176 208.53 7.28017C205.79 11.1091 203.151 15.5029 199.021 20.2175C198.605 20.686 197.96 20.9631 197.278 20.9631C197.236 20.9631 197.194 20.9631 197.15 20.9616Z" fill="#1E97A0"/>
<path d="M141.877 8.18761C141.094 7.71408 140.7 6.73108 140.741 6.14035C140.824 4.81199 141.417 4.18375 141.918 3.51331C142.557 2.85538 142.749 2.45218 143.923 1.93334V1.93647C145.032 1.54265 146.28 2.03492 146.714 3.03979C146.811 3.26327 146.859 3.493 146.864 3.71805C147.25 4.0978 147.457 4.60571 147.431 5.12611C147.435 5.14799 147.435 5.18862 147.423 5.2652C147.369 6.05128 147.087 6.69827 146.622 7.33432C146.133 7.96725 145.255 8.73926 143.8 8.76895H143.764C143.097 8.76895 142.412 8.5408 141.877 8.18761Z" fill="#EE5938"/>
<path d="M159.077 19.2146C158.955 19.2032 158.813 19.1901 158.642 19.1787C157.745 19.1101 156.991 18.4974 156.765 17.6577C156.672 17.3048 156.64 16.965 156.64 16.6529C156.65 15.555 157.05 14.1206 158.636 13.3249C159.687 12.8397 160.944 13.2628 161.453 14.2774C161.811 14.9946 161.691 15.8131 161.22 16.4029C161.348 16.7019 161.402 17.0319 161.37 17.375C161.265 18.4272 160.349 19.2212 159.28 19.2212C159.21 19.2212 159.144 19.2195 159.077 19.2146Z" fill="#EE5938"/>
<path d="M173.046 6.89797C172.822 6.74505 172.077 6.835 170.858 5.96392C170.448 5.65357 170.01 4.9624 170.032 4.26823C170.05 3.42264 170.448 2.91438 170.795 2.50507C171.22 2.0238 171.877 1.76442 172.559 1.8049C173.374 1.8109 174.341 2.40012 174.663 3.00883V3.01183C174.773 3.18724 174.845 3.37166 174.888 3.56057C175.738 4.02235 176.12 4.98489 175.745 5.84548C175.42 6.58163 174.635 7.02691 173.808 7.02691C173.554 7.02691 173.296 6.98493 173.046 6.89797Z" fill="#EE5938"/>
<path d="M185.728 20.0923C183.71 19.8624 182.763 18.699 182.586 16.8042C182.558 16.1076 182.915 15.1689 183.583 14.6482C184.241 14.1188 184.945 13.9986 185.56 13.9951C185.742 13.9951 185.783 14.0073 185.783 14.0038V14.0073C186.835 14.0648 187.665 14.9286 187.75 15.9927C187.772 16.0136 187.797 16.038 187.819 16.0606C188.637 16.8983 188.655 18.2741 187.85 19.1292C187.365 19.6743 186.56 20.0923 185.767 20.0923H185.728Z" fill="#EE5938"/>
<path d="M193.919 7.1916C193.609 6.59862 193.469 5.98799 193.466 5.31997C193.441 4.26939 193.933 2.6685 195.878 1.9431V1.94604C196.981 1.55023 198.257 1.99165 198.722 2.926C199.058 3.6102 198.874 4.3665 198.314 4.87855C199.236 5.37147 199.593 6.38379 199.104 7.23132C198.783 7.77869 198.105 8.70715 196.517 8.76895C194.7 8.63947 194.238 7.69482 193.919 7.1916Z" fill="#EE5938"/>
<path d="M206.02 18.3055C205.978 17.039 207.43 16.0106 208.753 15.8V15.8029C210.022 15.5372 211.333 16.1021 211.685 17.0709C211.755 17.2685 211.78 17.4689 211.763 17.6635C212.203 17.9119 212.529 18.2793 212.657 18.7165C212.942 19.6897 212.128 20.657 210.851 20.8763C210.488 20.9373 210.127 20.9634 209.806 20.9634C207.94 20.9591 206.083 19.9758 206.02 18.3055Z" fill="#EE5938"/>
<path d="M221.733 6.15435C220.586 6.11757 219.996 5.71747 219.497 5.3115C219.026 4.88199 218.597 4.32893 218.574 3.46108C218.511 2.00339 220.338 0.96639 221.582 0.948739C222.659 0.819298 223.665 1.36207 223.992 2.19314C224.203 2.44026 224.341 2.73444 224.382 3.05657C224.401 3.2272 224.431 3.40812 224.431 3.65524C224.421 4.10975 224.353 4.63487 223.9 5.20853C223.482 5.76896 222.542 6.15582 221.825 6.15582C221.795 6.15582 221.763 6.15582 221.733 6.15435Z" fill="#EE5938"/>
<path d="M234.982 21.8345C233.777 21.7979 233.031 21.3754 232.362 20.849C231.728 20.3153 231.143 19.5477 231.128 18.4848C231.105 17.6529 231.606 16.7698 232.35 16.2098L232.355 16.2156C233.223 15.5372 234.582 15.5855 235.379 16.3282C235.617 16.5475 235.778 16.8034 235.864 17.0724C236.848 17.1558 237.663 17.8137 237.778 18.6807C237.791 18.8211 237.822 18.9907 237.822 19.2392C237.822 19.7817 237.68 20.4411 237.107 21.0157C236.552 21.583 235.679 21.8345 235.041 21.8345H234.982Z" fill="#EE5938"/>
<path d="M245.058 5.008C244.465 4.80757 243.997 4.38428 243.801 3.86974C243.703 3.6364 243.681 3.38064 243.681 3.25051L243.684 3.22508C243.684 1.89985 244.764 0.119919 247.149 0.0585938C247.508 0.0660725 247.585 0.0989794 247.608 0.0989794C248.231 0.205177 248.736 0.529748 249.044 0.960522C249.26 1.0727 249.456 1.22228 249.622 1.40327C249.606 1.41524 250.373 2.02848 250.376 3.07401C250.376 3.17572 250.367 3.26696 250.357 3.36119C250.276 4.03876 249.765 4.63108 249.029 4.89433C248.362 5.13215 247.627 5.28472 246.808 5.28472C246.253 5.28472 245.658 5.21441 245.058 5.008Z" fill="#EE5938"/>
<path d="M255.782 20.0834C255.046 19.4872 254.62 18.5735 254.577 17.6807C254.559 17.5244 254.572 17.447 254.568 17.447C254.454 16.0161 255.748 14.2515 257.666 14.0259H257.669C258.724 13.8599 259.739 14.3804 260.136 15.228C260.847 15.3537 261.478 15.7824 261.78 16.4221C261.985 16.8621 262.093 17.3197 262.093 17.779C262.034 19.9029 259.984 20.9633 258.342 20.9633H258.319C257.479 20.9633 256.538 20.7071 255.782 20.0834Z" fill="#EE5938"/>
<path d="M323.528 20.9616C322.798 20.9224 322.135 20.57 321.774 20.0292C318.684 15.4035 315.585 12.4979 311.701 7.25457C311.608 7.35699 311.516 7.46243 311.42 7.57239C310.229 8.83916 308.709 10.2761 307.146 11.7508C304.042 14.6428 300.683 17.8948 300.005 19.2158C299.662 19.8289 298.958 20.2401 298.163 20.2808C297.371 20.3184 296.616 19.9825 296.191 19.4071C292.75 14.6925 290.436 9.82727 287.534 4.8355C283.175 8.09807 278.951 12.9151 273.409 16.6311C272.332 17.339 271.607 17.8662 270.97 18.2804C270.325 18.6525 269.799 19.1375 268.438 19.2038C266.915 19.1496 266.213 18.3467 265.814 17.9536C265.362 17.4761 264.939 16.9625 264.247 16.2575C260.602 12.5416 257.657 8.7533 254.109 4.31131V4.31584C253.426 3.46329 253.676 2.28991 254.665 1.70247C255.656 1.11352 257.018 1.3289 257.701 2.18145C261.263 6.64904 264.136 10.3259 267.578 13.8355C268.045 14.3099 268.42 14.7241 268.707 15.042C269.189 14.7151 269.866 14.2391 270.75 13.6532C276.465 9.89054 281.032 4.17876 286.978 0.417614C287.487 0.0937662 288.137 -0.014687 288.752 0.107321C289.368 0.232341 289.892 0.578788 290.184 1.05929C293.222 6.01491 295.419 10.6286 298.154 14.8808C299.692 13.1893 301.684 11.3501 303.633 9.49439C306.472 6.91264 309.272 3.98596 309.523 3.40605C309.525 3.40304 309.525 3.39853 309.525 3.39551C309.644 2.61225 310.32 1.97058 311.224 1.8064C312.142 1.63167 313.089 1.98866 313.569 2.68606C317.422 8.3677 320.55 11.3622 323.806 15.7002C327.375 11.2251 329.817 6.95331 332.974 2.94062C333.355 2.44656 333.989 2.14531 334.678 2.1197C335.358 2.08958 336.015 2.34413 336.453 2.79903C340.133 6.76352 343.612 12.7856 347.554 15.405C350.993 11.9827 354.41 6.64302 358.128 2.65894C358.556 2.20254 359.213 1.94196 359.9 1.96756C360.584 1.98865 361.218 2.28539 361.613 2.77192C364.565 6.45926 368.034 11.0413 370.883 13.9936C374.237 10.252 379.105 4.78127 381.143 2.19501C381.816 1.33644 383.17 1.11351 384.165 1.69493C385.161 2.27785 385.422 3.44672 384.749 4.30379C382.179 7.56486 375.922 14.5223 372.736 18.0726C372.35 18.4958 371.773 18.761 371.149 18.7941C370.529 18.8302 369.91 18.6284 369.471 18.2503C366.369 15.5556 362.877 11.0353 359.731 7.04971C356.539 10.9027 353.29 15.8192 349.457 19.1586C348.777 19.743 347.727 19.8756 346.881 19.4855C341.424 16.8465 338.025 11.2176 334.91 7.28017C332.166 11.1091 329.527 15.5029 325.397 20.2175C324.983 20.686 324.338 20.9631 323.656 20.9631C323.614 20.9631 323.57 20.9631 323.528 20.9616Z" fill="#1E97A0"/>
<path d="M268.254 8.18761C267.469 7.71408 267.075 6.73108 267.118 6.14035C267.199 4.81199 267.794 4.18375 268.295 3.51331C268.933 2.85538 269.127 2.45218 270.301 1.93334V1.93647C271.41 1.54265 272.658 2.03492 273.092 3.03979C273.189 3.26327 273.238 3.493 273.241 3.71805C273.627 4.0978 273.836 4.60571 273.808 5.12611C273.811 5.14799 273.811 5.18862 273.799 5.2652C273.748 6.05128 273.466 6.69827 272.999 7.33432C272.512 7.96725 271.633 8.73926 270.178 8.76895H270.14C269.473 8.76895 268.788 8.5408 268.254 8.18761Z" fill="#EE5938"/>
<path d="M286.292 19.2146C286.17 19.2032 286.028 19.1901 285.858 19.1787C284.959 19.1101 284.207 18.4974 283.979 17.6577C283.887 17.3048 283.854 16.965 283.854 16.6529C283.864 15.555 284.266 14.1206 285.851 13.3249C286.9 12.8397 288.159 13.2628 288.666 14.2774C289.024 14.9946 288.906 15.8131 288.435 16.4029C288.561 16.7019 288.617 17.0319 288.583 17.375C288.478 18.4272 287.563 19.2212 286.493 19.2212C286.425 19.2212 286.359 19.2195 286.292 19.2146Z" fill="#EE5938"/>
<path d="M300.26 6.89797C300.035 6.74505 299.291 6.835 298.073 5.96392C297.662 5.65357 297.222 4.9624 297.246 4.26823C297.264 3.42264 297.662 2.91438 298.009 2.50507C298.433 2.0238 299.091 1.76442 299.772 1.8049C300.589 1.8109 301.556 2.40012 301.876 3.00883V3.01183C301.986 3.18724 302.059 3.37166 302.103 3.56057C302.953 4.02235 303.335 4.98489 302.958 5.84548C302.633 6.58163 301.848 7.02691 301.021 7.02691C300.767 7.02691 300.51 6.98493 300.26 6.89797Z" fill="#EE5938"/>
<path d="M312.942 20.0923C310.925 19.8624 309.977 18.699 309.8 16.8042C309.772 16.1076 310.129 15.1689 310.797 14.6482C311.456 14.1188 312.159 13.9986 312.773 13.9951C312.957 13.9951 312.997 14.0073 312.997 14.0038V14.0073C314.049 14.0648 314.879 14.9286 314.964 15.9927C314.987 16.0136 315.01 16.038 315.032 16.0606C315.85 16.8983 315.869 18.2741 315.066 19.1292C314.58 19.6743 313.775 20.0923 312.98 20.0923H312.942Z" fill="#EE5938"/>
<path d="M321.134 7.1916C320.822 6.59862 320.684 5.98799 320.679 5.31997C320.657 4.26939 321.146 2.6685 323.091 1.9431V1.94604C324.196 1.55023 325.472 1.99165 325.937 2.926C326.273 3.6102 326.087 4.3665 325.527 4.87855C326.451 5.37147 326.807 6.38379 326.317 7.23132C325.998 7.77869 325.318 8.70715 323.732 8.76895C321.913 8.63947 321.451 7.69482 321.134 7.1916Z" fill="#EE5938"/>
<path d="M333.233 18.3055C333.198 17.039 334.467 16.0106 335.626 15.8V15.8029C336.736 15.5372 337.882 16.1021 338.189 17.0709C338.251 17.2685 338.273 17.4689 338.259 17.6635C338.642 17.9119 338.928 18.2793 339.042 18.7165C339.289 19.6897 338.579 20.657 337.462 20.8763C337.143 20.9373 336.828 20.9634 336.547 20.9634C334.914 20.9591 333.289 19.9758 333.233 18.3055Z" fill="#EE5938"/>
<path d="M348.949 6.15435C347.8 6.11757 347.212 5.71747 346.711 5.3115C346.241 4.88199 345.811 4.32893 345.788 3.46108C345.726 2.00339 347.553 0.96639 348.796 0.948739C349.873 0.819298 350.878 1.36207 351.206 2.19314C351.417 2.44026 351.555 2.73444 351.597 3.05657C351.617 3.2272 351.645 3.40812 351.645 3.65524C351.635 4.10975 351.567 4.63487 351.116 5.20853C350.698 5.76896 349.758 6.15582 349.041 6.15582C349.011 6.15582 348.977 6.15582 348.949 6.15435Z" fill="#EE5938"/>
<path d="M361.84 21.8345C360.486 21.7979 359.646 21.3754 358.892 20.849C358.178 20.3153 357.52 19.5477 357.505 18.4848C357.478 17.6529 358.04 16.7698 358.878 16.2098L358.884 16.2156C359.863 15.5372 361.389 15.5855 362.287 16.3282C362.554 16.5475 362.736 16.8034 362.834 17.0724C363.941 17.1558 364.856 17.8137 364.988 18.6807C365.003 18.8211 365.036 18.9907 365.036 19.2392C365.036 19.7817 364.875 20.4411 364.231 21.0157C363.608 21.583 362.626 21.8345 361.906 21.8345H361.84Z" fill="#EE5938"/>
<path d="M372.272 5.008C371.679 4.80757 371.213 4.38428 371.015 3.86974C370.919 3.6364 370.895 3.38064 370.895 3.25051L370.9 3.22508C370.9 1.89985 371.978 0.119919 374.363 0.0585938C374.725 0.0660725 374.801 0.0989794 374.822 0.0989794C375.445 0.205177 375.952 0.529748 376.258 0.960522C376.475 1.0727 376.67 1.22228 376.838 1.40327C376.822 1.41524 377.586 2.02848 377.59 3.07401C377.59 3.17572 377.581 3.26696 377.571 3.36119C377.492 4.03876 376.983 4.63108 376.244 4.89433C375.578 5.13215 374.841 5.28472 374.022 5.28472C373.469 5.28472 372.874 5.21441 372.272 5.008Z" fill="#EE5938"/>
<path d="M382.996 20.0834C382.258 19.4872 381.834 18.5735 381.791 17.6807C381.773 17.5244 381.785 17.447 381.782 17.447C381.666 16.0161 382.96 14.2515 384.878 14.0259H384.884C385.939 13.8599 386.952 14.3804 387.351 15.228C388.064 15.3537 388.692 15.7824 388.994 16.4221C389.198 16.8621 389.307 17.3197 389.307 17.779C389.249 19.9029 387.199 20.9633 385.555 20.9633H385.534C384.692 20.9633 383.753 20.7071 382.996 20.0834Z" fill="#EE5938"/>
<path d="M450.742 20.9616C450.013 20.9224 449.35 20.57 448.987 20.0292C445.897 15.4035 442.798 12.4979 438.914 7.25457C438.823 7.35699 438.729 7.46243 438.633 7.57239C437.443 8.83916 435.922 10.2761 434.361 11.7508C431.255 14.6428 427.896 17.8948 427.22 19.2158C426.877 19.8289 426.171 20.2401 425.377 20.2808C424.586 20.3184 423.829 19.9825 423.404 19.4071C419.964 14.6925 417.65 9.82727 414.747 4.8355C410.39 8.09807 406.165 12.9151 400.623 16.6311C399.546 17.339 398.819 17.8662 398.187 18.2804C397.54 18.6525 397.012 19.1375 395.651 19.2038C394.128 19.1496 393.426 18.3467 393.027 17.9536C392.576 17.4761 392.153 16.9625 391.461 16.2575C387.817 12.5416 384.87 8.7533 381.322 4.31131V4.31584C380.64 3.46329 380.89 2.28991 381.88 1.70247C382.871 1.11352 384.23 1.3289 384.914 2.18145C388.476 6.64904 391.349 10.3259 394.791 13.8355C395.257 14.3099 395.635 14.7241 395.92 15.042C396.402 14.7151 397.08 14.2391 397.965 13.6532C403.678 9.89054 408.245 4.17876 414.193 0.417614C414.702 0.0937662 415.35 -0.014687 415.965 0.107321C416.581 0.232341 417.105 0.578788 417.397 1.05929C420.435 6.01491 422.633 10.6286 425.369 14.8808C426.905 13.1893 428.899 11.3501 430.846 9.49439C433.685 6.91264 436.487 3.98596 436.736 3.40605C436.738 3.40304 436.738 3.39853 436.738 3.39551C436.859 2.61225 437.533 1.97058 438.437 1.8064C439.355 1.63167 440.302 1.98866 440.784 2.68606C444.637 8.3677 447.763 11.3622 451.021 15.7002C454.59 11.2251 457.032 6.95331 460.187 2.94062C460.568 2.44656 461.202 2.14531 461.891 2.1197C462.571 2.08958 463.23 2.34413 463.668 2.79903C467.346 6.76352 470.828 12.7856 474.769 15.405C478.207 11.9827 481.624 6.64302 485.341 2.65894C485.77 2.20254 486.429 1.94196 487.114 1.96756C487.799 1.98865 488.433 2.28539 488.827 2.77192C491.78 6.45926 495.25 11.0413 498.099 13.9936C501.454 10.252 506.319 4.78127 508.357 2.19501C509.03 1.33644 510.386 1.11351 511.379 1.69493C512.377 2.27785 512.635 3.44672 511.962 4.30379C509.395 7.56486 503.136 14.5223 499.95 18.0726C499.563 18.4958 498.987 18.761 498.364 18.7941C497.744 18.8302 497.125 18.6284 496.686 18.2503C493.582 15.5556 490.092 11.0353 486.946 7.04971C483.754 10.9027 480.503 15.8192 476.672 19.1586C475.992 19.743 474.942 19.8756 474.094 19.4855C468.638 16.8465 465.238 11.2176 462.123 7.28017C459.379 11.1091 456.742 15.5029 452.612 20.2175C452.196 20.686 451.551 20.9631 450.869 20.9631C450.827 20.9631 450.784 20.9631 450.742 20.9616Z" fill="#1E97A0"/>
<path d="M395.467 8.18761C394.684 7.71408 394.29 6.73108 394.332 6.14035C394.415 4.81199 395.007 4.18375 395.509 3.51331C396.146 2.85538 396.34 2.45218 397.514 1.93334V1.93647C398.623 1.54265 399.871 2.03492 400.305 3.03979C400.402 3.26327 400.45 3.493 400.456 3.71805C400.841 4.0978 401.048 4.60571 401.021 5.12611C401.026 5.14799 401.026 5.18862 401.014 5.2652C400.96 6.05128 400.679 6.69827 400.214 7.33432C399.724 7.96725 398.846 8.73926 397.393 8.76895H397.353C396.687 8.76895 396.001 8.5408 395.467 8.18761Z" fill="#EE5938"/>
<path d="M413.505 19.2146C413.383 19.2032 413.241 19.1901 413.07 19.1787C412.173 19.1101 411.419 18.4974 411.192 17.6577C411.1 17.3048 411.067 16.965 411.067 16.6529C411.078 15.555 411.478 14.1206 413.064 13.3249C414.113 12.8397 415.373 13.2628 415.88 14.2774C416.238 14.9946 416.12 15.8131 415.648 16.4029C415.777 16.7019 415.833 17.0319 415.8 17.375C415.694 18.4272 414.778 19.2212 413.706 19.2212C413.638 19.2212 413.573 19.2195 413.505 19.2146Z" fill="#EE5938"/>
<path d="M427.067 6.89797C426.811 6.74505 425.959 6.835 424.566 5.96392C424.097 5.65357 423.596 4.9624 423.623 4.26823C423.642 3.42264 424.097 2.91438 424.495 2.50507C424.98 2.0238 425.732 1.76442 426.508 1.8049C427.442 1.8109 428.549 2.40012 428.915 3.00883V3.01183C429.039 3.18724 429.123 3.37166 429.173 3.56057C430.145 4.02235 430.581 4.98489 430.152 5.84548C429.781 6.58163 428.881 7.02691 427.938 7.02691C427.648 7.02691 427.352 6.98493 427.067 6.89797Z" fill="#EE5938"/>
<path d="M440.157 20.0923C438.139 19.8624 437.192 18.699 437.014 16.8042C436.987 16.1076 437.344 15.1689 438.012 14.6482C438.67 14.1188 439.373 13.9986 439.988 13.9951C440.17 13.9951 440.21 14.0073 440.21 14.0038V14.0073C441.262 14.0648 442.092 14.9286 442.179 15.9927C442.2 16.0136 442.224 16.038 442.247 16.0606C443.063 16.8983 443.083 18.2741 442.28 19.1292C441.795 19.6743 440.988 20.0923 440.195 20.0923H440.157Z" fill="#EE5938"/>
<path d="M448.347 7.1916C448.035 6.59862 447.897 5.98799 447.893 5.31997C447.869 4.26939 448.36 2.6685 450.305 1.9431V1.94604C451.408 1.55023 452.684 1.99165 453.149 2.926C453.487 3.6102 453.301 4.3665 452.741 4.87855C453.663 5.37147 454.02 6.38379 453.533 7.23132C453.21 7.77869 452.531 8.70715 450.945 8.76895C449.125 8.63947 448.667 7.69482 448.347 7.1916Z" fill="#EE5938"/>
<path d="M460.447 18.3055C460.41 17.039 461.683 16.0106 462.839 15.8V15.8029C463.949 15.5372 465.097 16.1021 465.404 17.0709C465.464 17.2685 465.488 17.4689 465.473 17.6635C465.858 17.9119 466.143 18.2793 466.256 18.7165C466.503 19.6897 465.794 20.657 464.675 20.8763C464.356 20.9373 464.041 20.9634 463.76 20.9634C462.128 20.9591 460.502 19.9758 460.447 18.3055Z" fill="#EE5938"/>
<path d="M475.324 6.15435C474.176 6.11757 473.587 5.71747 473.088 5.3115C472.618 4.88199 472.186 4.32893 472.165 3.46108C472.103 2.00339 473.929 0.96639 475.173 0.948739C476.248 0.819298 477.255 1.36207 477.581 2.19314C477.794 2.44026 477.932 2.73444 477.973 3.05657C477.992 3.2272 478.022 3.40812 478.022 3.65524C478.011 4.10975 477.944 4.63487 477.493 5.20853C477.073 5.76896 476.133 6.15582 475.418 6.15582C475.386 6.15582 475.354 6.15582 475.324 6.15435Z" fill="#EE5938"/>
<path d="M488.574 21.8345C487.368 21.7979 486.622 21.3754 485.951 20.849C485.317 20.3153 484.732 19.5477 484.718 18.4848C484.696 17.6529 485.196 16.7698 485.943 16.2098L485.946 16.2156C486.815 15.5372 488.171 15.5855 488.971 16.3282C489.208 16.5475 489.37 16.8034 489.456 17.0724C490.44 17.1558 491.253 17.8137 491.37 18.6807C491.385 18.8211 491.413 18.9907 491.413 19.2392C491.413 19.7817 491.27 20.4411 490.699 21.0157C490.144 21.583 489.27 21.8345 488.632 21.8345H488.574Z" fill="#EE5938"/>
<path d="M499.484 5.008C498.892 4.80757 498.425 4.38428 498.229 3.86974C498.131 3.6364 498.108 3.38064 498.108 3.25051L498.112 3.22508C498.112 1.89985 499.19 0.119919 501.577 0.0585938C501.937 0.0660725 502.014 0.0989794 502.034 0.0989794C502.658 0.205177 503.166 0.529748 503.472 0.960522C503.687 1.0727 503.883 1.22228 504.05 1.40327C504.034 1.41524 504.799 2.02848 504.804 3.07401C504.804 3.17572 504.795 3.26696 504.786 3.36119C504.704 4.03876 504.195 4.63108 503.456 4.89433C502.79 5.13215 502.055 5.28472 501.236 5.28472C500.681 5.28472 500.086 5.21441 499.484 5.008Z" fill="#EE5938"/>
<path d="M510.21 20.0834C509.475 19.4872 509.048 18.5735 509.005 17.6807C508.987 17.5244 509 17.447 508.996 17.447C508.88 16.0161 510.174 14.2515 512.094 14.0259H512.097C513.154 13.8599 514.165 14.3804 514.563 15.228C515.276 15.3537 515.906 15.7824 516.208 16.4221C516.414 16.8621 516.521 17.3197 516.521 17.779C516.461 19.9029 514.411 20.9633 512.77 20.9633H512.747C511.907 20.9633 510.966 20.7071 510.21 20.0834Z" fill="#EE5938"/>
<path d="M577.956 20.9616C577.225 20.9224 576.563 20.57 576.201 20.0292C573.111 15.4035 570.012 12.4979 566.127 7.25457C566.037 7.35699 565.943 7.46243 565.847 7.57239C564.657 8.83916 563.136 10.2761 561.574 11.7508C558.47 14.6428 555.11 17.8948 554.432 19.2158C554.09 19.8289 553.383 20.2401 552.59 20.2808C551.798 20.3184 551.043 19.9825 550.618 19.4071C547.179 14.6925 544.863 9.82727 541.962 4.8355C537.602 8.09807 533.378 12.9151 527.836 16.6311C526.759 17.339 526.034 17.8662 525.399 18.2804C524.753 18.6525 524.227 19.1375 522.865 19.2038C521.343 19.1496 520.64 18.3467 520.242 17.9536C519.789 17.4761 519.366 16.9625 518.676 16.2575C515.03 12.5416 512.085 8.7533 508.535 4.31131V4.31584C507.855 3.46329 508.103 2.28991 509.094 1.70247C510.083 1.11352 511.443 1.3289 512.128 2.18145C515.69 6.64904 518.564 10.3259 522.005 13.8355C522.472 14.3099 522.849 14.7241 523.134 15.042C523.617 14.7151 524.295 14.2391 525.177 13.6532C530.891 9.89054 535.458 4.17876 541.406 0.417614C541.914 0.0937662 542.565 -0.014687 543.178 0.107321C543.795 0.232341 544.319 0.578788 544.611 1.05929C547.649 6.01491 549.846 10.6286 552.581 14.8808C554.119 13.1893 556.112 11.3501 558.06 9.49439C560.899 6.91264 563.699 3.98596 563.949 3.40605C563.951 3.40304 563.951 3.39853 563.951 3.39551C564.071 2.61225 564.748 1.97058 565.651 1.8064C566.567 1.63167 567.516 1.98866 567.999 2.68606C571.849 8.3677 574.977 11.3622 578.234 15.7002C581.803 11.2251 584.246 6.95331 587.399 2.94062C587.782 2.44656 588.415 2.14531 589.103 2.1197C589.785 2.08958 590.442 2.34413 590.881 2.79903C594.558 6.76352 598.04 12.7856 601.981 15.405C605.421 11.9827 608.838 6.64302 612.555 2.65894C612.982 2.20254 613.641 1.94196 614.327 1.96756C615.011 1.98865 615.645 2.28539 616.04 2.77192C618.992 6.45926 622.462 11.0413 625.311 13.9936C628.666 10.252 633.532 4.78127 635.568 2.19501C636.245 1.33644 637.598 1.11351 638.592 1.69493C639.59 2.27785 639.849 3.44672 639.176 4.30379C636.608 7.56486 630.35 14.5223 627.162 18.0726C626.779 18.4958 626.2 18.761 625.576 18.7941C624.958 18.8302 624.337 18.6284 623.898 18.2503C620.794 15.5556 617.306 11.0353 614.158 7.04971C610.966 10.9027 607.717 15.8192 603.884 19.1586C603.204 19.743 602.154 19.8756 601.308 19.4855C595.851 16.8465 592.45 11.2176 589.336 7.28017C586.593 11.1091 583.956 15.5029 579.824 20.2175C579.41 20.686 578.765 20.9631 578.083 20.9631C578.041 20.9631 577.998 20.9631 577.956 20.9616Z" fill="#1E97A0"/>
<path d="M705.895 20.9616C705.164 20.9224 704.502 20.57 704.14 20.0292C701.05 15.4035 697.951 12.4979 694.066 7.25457C693.977 7.35699 693.882 7.46243 693.786 7.57239C692.596 8.83916 691.075 10.2761 689.513 11.7508C686.409 14.6428 683.049 17.8948 682.371 19.2158C682.029 19.8289 681.323 20.2401 680.529 20.2808C679.737 20.3184 678.982 19.9825 678.558 19.4071C675.118 14.6925 672.802 9.82727 669.901 4.8355C665.542 8.09807 661.317 12.9151 655.775 16.6311C654.698 17.339 653.973 17.8662 653.339 18.2804C652.692 18.6525 652.166 19.1375 650.804 19.2038C649.282 19.1496 648.579 18.3467 648.181 17.9536C647.728 17.4761 647.305 16.9625 646.615 16.2575C642.969 12.5416 640.024 8.7533 636.474 4.31131V4.31584C635.794 3.46329 636.042 2.28991 637.033 1.70247C638.023 1.11352 639.382 1.3289 640.067 2.18145C643.63 6.64904 646.503 10.3259 649.944 13.8355C650.411 14.3099 650.789 14.7241 651.073 15.042C651.556 14.7151 652.234 14.2391 653.117 13.6532C658.83 9.89054 663.397 4.17876 669.345 0.417614C669.854 0.0937662 670.504 -0.014687 671.117 0.107321C671.734 0.232341 672.258 0.578788 672.55 1.05929C675.588 6.01491 677.785 10.6286 680.52 14.8808C682.058 13.1893 684.051 11.3501 686 9.49439C688.838 6.91264 691.638 3.98596 691.888 3.40605C691.89 3.40304 691.89 3.39853 691.89 3.39551C692.01 2.61225 692.687 1.97058 693.59 1.8064C694.506 1.63167 695.455 1.98866 695.938 2.68606C699.788 8.3677 702.917 11.3622 706.173 15.7002C709.742 11.2251 712.185 6.95331 715.338 2.94062C715.721 2.44656 716.354 2.14531 717.042 2.1197C717.724 2.08958 718.381 2.34413 718.82 2.79903C722.497 6.76352 725.979 12.7856 729.92 15.405C733.36 11.9827 736.777 6.64302 740.494 2.65894C740.921 2.20254 741.58 1.94196 742.267 1.96756C742.95 1.98865 743.585 2.28539 743.98 2.77192C746.932 6.45926 750.401 11.0413 753.25 13.9936C756.606 10.252 761.472 4.78127 763.508 2.19501C764.184 1.33644 765.537 1.11351 766.531 1.69493C767.529 2.27785 767.788 3.44672 767.115 4.30379C764.548 7.56486 758.289 14.5223 755.101 18.0726C754.718 18.4958 754.139 18.761 753.516 18.7941C752.897 18.8302 752.276 18.6284 751.838 18.2503C748.734 15.5556 745.245 11.0353 742.097 7.04971C738.906 10.9027 735.656 15.8192 731.824 19.1586C731.144 19.743 730.093 19.8756 729.247 19.4855C723.791 16.8465 720.389 11.2176 717.275 7.28017C714.533 11.1091 711.895 15.5029 707.763 20.2175C707.349 20.686 706.704 20.9631 706.023 20.9631C705.981 20.9631 705.937 20.9631 705.895 20.9616Z" fill="#1E97A0"/>
<path d="M731.668 23.3594C733.837 23.3594 736.011 23.4465 738.162 23.6221C741.374 23.8724 744.62 23.9598 747.888 23.957C754.363 23.9598 760.948 23.6221 767.582 23.6221C768.784 23.6222 769.765 24.3929 769.765 25.3457C769.764 26.2956 768.784 27.0673 767.582 27.0674C761.137 27.0674 754.548 27.4043 747.888 27.4043C744.523 27.4043 741.133 27.3228 737.73 27.0518C735.712 26.8927 733.688 26.8058 731.668 26.8086C728.615 26.8058 725.577 26.9994 722.631 27.4102C718.522 27.9702 714.009 27.9922 709.845 27.9922C709.27 27.9922 708.693 27.9951 708.12 27.9951C707.416 27.9951 706.731 27.9955 706.023 28.001H705.081C701.245 28.001 697.501 27.858 693.731 27.7031C688.782 27.4833 683.729 27.425 678.614 27.4277C672.125 27.425 665.539 27.5238 658.968 27.5293C652.534 27.5238 646.116 27.432 639.793 27.0674C633.375 27.0703 626.814 27.4043 620.183 27.4043C616.819 27.4043 613.429 27.3228 610.026 27.0518C608.008 26.8927 605.984 26.8058 603.964 26.8086C600.911 26.8058 597.873 26.9995 594.927 27.4102C590.818 27.9702 586.305 27.9922 582.141 27.9922C581.566 27.9922 580.989 27.9951 580.416 27.9951C579.712 27.9951 579.026 27.9954 578.318 28.001H577.377C573.541 28.001 569.797 27.858 566.027 27.7031C561.078 27.4833 556.025 27.425 550.91 27.4277C544.421 27.425 537.834 27.5238 531.264 27.5293C524.855 27.5238 518.462 27.4324 512.163 27.0713C505.949 27.0947 499.605 27.4043 493.194 27.4043C489.83 27.4043 486.439 27.3228 483.035 27.0518C481.018 26.8927 478.993 26.8058 476.975 26.8086C473.922 26.8058 470.884 26.9995 467.935 27.4102C463.829 27.9702 459.314 27.9922 455.149 27.9922C454.575 27.9922 453.998 27.9951 453.427 27.9951C452.722 27.9951 452.035 27.9954 451.327 28.001H450.388C446.552 28.001 442.806 27.858 439.036 27.7031C434.087 27.4832 429.036 27.425 423.919 27.4277C417.43 27.425 410.844 27.5238 404.273 27.5293C397.865 27.5238 391.473 27.4324 385.172 27.0713C378.958 27.0947 372.615 27.4043 366.201 27.4043C362.839 27.4043 359.448 27.3228 356.046 27.0518C354.027 26.8927 352.002 26.8058 349.983 26.8086C346.93 26.8058 343.893 26.9994 340.946 27.4102C336.838 27.9702 332.325 27.9922 328.16 27.9922C327.585 27.9922 327.008 27.9951 326.435 27.9951C325.733 27.9951 325.046 27.9955 324.339 28.001H323.396C319.56 28.001 315.815 27.858 312.047 27.7031C307.098 27.4833 302.045 27.425 296.93 27.4277C290.441 27.425 283.856 27.5238 277.283 27.5293C270.875 27.5238 264.484 27.4324 258.183 27.0713C251.967 27.0947 245.624 27.4043 239.212 27.4043C235.849 27.4043 232.459 27.3228 229.055 27.0518C227.038 26.8927 225.012 26.8058 222.993 26.8086C219.94 26.8058 216.902 26.9995 213.956 27.4102C209.847 27.9702 205.333 27.9922 201.169 27.9922C200.594 27.9922 200.017 27.9951 199.446 27.9951C198.742 27.9951 198.054 27.9954 197.347 28.001H196.406C192.57 28.001 188.825 27.858 185.058 27.7031C180.108 27.4832 175.054 27.425 169.938 27.4277C163.449 27.425 156.864 27.5238 150.293 27.5293C143.885 27.5238 137.492 27.4324 131.191 27.0713C124.978 27.0947 118.633 27.4043 112.223 27.4043C108.858 27.4043 105.47 27.3228 102.065 27.0518C100.047 26.8927 98.0214 26.8058 96.0048 26.8086C92.95 26.8058 89.9122 26.9994 86.9657 27.4102C82.8571 27.9702 78.3442 27.9922 74.1796 27.9922C73.6048 27.9922 73.028 27.9951 72.455 27.9951C71.7527 27.9951 71.0659 27.9955 70.3583 28.001H69.4179C65.5801 28.001 61.8361 27.858 58.0683 27.7031C53.1173 27.4832 48.0644 27.425 42.9491 27.4277C36.4604 27.425 29.8753 27.5238 23.3026 27.5293C16.8679 27.5238 10.4445 27.4325 4.11807 27.0674H4.12588C2.91826 26.9955 2.01974 26.1706 2.10538 25.2178C2.19129 24.2681 3.23933 23.5533 4.44131 23.625C10.6035 23.9873 16.9203 24.0784 23.3026 24.0742C29.8176 24.0784 36.4027 23.9788 42.9491 23.9746C48.1029 23.9788 53.2365 24.0356 58.3046 24.2568C62.0531 24.4117 65.7218 24.5527 69.4179 24.5527C69.7236 24.5527 70.047 24.55 70.3544 24.5527C71.0411 24.5458 71.7368 24.5459 72.455 24.5459C73.0175 24.5459 73.5943 24.5461 74.1796 24.542C78.3057 24.5461 82.6285 24.4993 86.2216 24.0098C89.4389 23.5645 92.7211 23.3594 96.0048 23.3594C98.1717 23.3594 100.344 23.4465 102.497 23.6221C105.709 23.8724 108.955 23.9598 112.223 23.957C118.433 23.9597 124.748 23.6512 131.109 23.626C131.214 23.62 131.321 23.6177 131.429 23.624C131.591 23.6236 131.754 23.6221 131.917 23.6221C132.108 23.6221 132.294 23.6429 132.472 23.6797C138.302 23.9935 144.269 24.0781 150.293 24.0742C156.808 24.0784 163.392 23.9788 169.938 23.9746C175.092 23.9788 180.225 24.0356 185.293 24.2568C189.041 24.4117 192.71 24.5527 196.406 24.5527C196.714 24.5527 197.038 24.55 197.344 24.5527C198.03 24.5458 198.728 24.5459 199.446 24.5459C200.007 24.5459 200.584 24.5461 201.169 24.542C205.295 24.5461 209.617 24.4993 213.21 24.0098C216.427 23.5645 219.711 23.3594 222.993 23.3594C225.16 23.3594 227.335 23.4464 229.486 23.6221C232.7 23.8724 235.944 23.9598 239.212 23.957C245.424 23.9597 251.739 23.6512 258.1 23.626C258.204 23.62 258.311 23.6177 258.419 23.624C258.582 23.6236 258.745 23.6221 258.908 23.6221C259.099 23.6221 259.285 23.643 259.462 23.6797C265.293 23.9934 271.259 24.0781 277.283 24.0742C283.798 24.0784 290.383 23.9788 296.93 23.9746C302.083 23.9788 307.217 24.0356 312.283 24.2568C316.033 24.4117 319.702 24.5527 323.396 24.5527C323.704 24.5527 324.027 24.55 324.333 24.5527C325.021 24.5458 325.717 24.5459 326.435 24.5459C326.998 24.5459 327.575 24.5461 328.16 24.542C332.284 24.5461 336.609 24.4993 340.202 24.0098C343.418 23.5645 346.701 23.3594 349.983 23.3594C352.15 23.3594 354.326 23.4465 356.477 23.6221C359.689 23.8724 362.933 23.9598 366.201 23.957C372.415 23.9597 378.729 23.6512 385.09 23.626C385.194 23.62 385.301 23.6177 385.409 23.624C385.572 23.6236 385.735 23.6221 385.897 23.6221C386.089 23.6221 386.276 23.6438 386.453 23.6807C392.283 23.9944 398.248 24.0781 404.273 24.0742C410.787 24.0784 417.374 23.9788 423.919 23.9746C429.072 23.9788 434.207 24.0356 439.273 24.2568C443.024 24.4117 446.691 24.5527 450.388 24.5527C450.693 24.5527 451.019 24.55 451.326 24.5527C452.011 24.5458 452.709 24.5459 453.427 24.5459C453.987 24.5459 454.564 24.5461 455.149 24.542C459.275 24.5461 463.598 24.4993 467.192 24.0098C470.408 23.5645 473.691 23.3594 476.975 23.3594C479.143 23.3594 481.316 23.4465 483.467 23.6221C486.681 23.8724 489.924 23.9598 493.194 23.957C499.404 23.9597 505.719 23.6512 512.08 23.626C512.185 23.62 512.291 23.6177 512.399 23.624C512.562 23.6236 512.726 23.6221 512.889 23.6221C513.08 23.6221 513.266 23.6438 513.443 23.6807C519.274 23.9944 525.24 24.0781 531.264 24.0742C537.779 24.0784 544.364 23.9788 550.91 23.9746C556.064 23.9788 561.197 24.0356 566.264 24.2568C570.014 24.4117 573.681 24.5527 577.377 24.5527C577.684 24.5527 578.008 24.55 578.315 24.5527C579.002 24.5458 579.7 24.5459 580.416 24.5459C580.977 24.5459 581.555 24.5461 582.141 24.542C586.265 24.5461 590.588 24.4993 594.182 24.0098C597.4 23.5645 600.682 23.3594 603.964 23.3594C606.133 23.3594 608.307 23.4465 610.458 23.6221C613.67 23.8724 616.916 23.9598 620.183 23.957C626.654 23.9598 633.235 23.6225 639.865 23.6221C639.945 23.6199 640.025 23.6202 640.106 23.625C646.267 23.9873 652.585 24.0784 658.968 24.0742C665.483 24.0784 672.068 23.9788 678.614 23.9746C683.768 23.9788 688.901 24.0356 693.968 24.2568C697.718 24.4117 701.385 24.5527 705.081 24.5527C705.388 24.5527 705.712 24.55 706.019 24.5527C706.706 24.5458 707.404 24.5459 708.12 24.5459C708.681 24.5459 709.259 24.5461 709.845 24.542C713.969 24.5461 718.292 24.4993 721.887 24.0098C725.104 23.5645 728.386 23.3594 731.668 23.3594Z" fill="#FBA538"/>
<path d="M522.682 8.18761C521.9 7.71408 521.504 6.73108 521.545 6.14035C521.628 4.81199 522.223 4.18375 522.724 3.51331C523.361 2.85538 523.555 2.45218 524.726 1.93334V1.93647C525.837 1.54265 527.085 2.03492 527.519 3.03979C527.615 3.26327 527.664 3.493 527.667 3.71805C528.053 4.0978 528.262 4.60571 528.236 5.12611C528.239 5.14799 528.239 5.18862 528.227 5.2652C528.172 6.05128 527.89 6.69827 527.427 7.33432C526.938 7.96725 526.06 8.73926 524.605 8.76895H524.567C523.901 8.76895 523.216 8.5408 522.682 8.18761Z" fill="#EE5938"/>
<path d="M649.785 8.18761C649.002 7.71408 648.607 6.73108 648.648 6.14035C648.731 4.81199 649.325 4.18375 649.826 3.51331C650.464 2.85538 650.658 2.45218 651.829 1.93334V1.93647C652.94 1.54265 654.188 2.03492 654.621 3.03979C654.718 3.26327 654.766 3.493 654.77 3.71805C655.155 4.0978 655.364 4.60571 655.338 5.12611C655.342 5.14799 655.342 5.18862 655.33 5.2652C655.274 6.05128 654.993 6.69827 654.53 7.33432C654.041 7.96725 653.163 8.73926 651.708 8.76895H651.67C651.003 8.76895 650.319 8.5408 649.785 8.18761Z" fill="#EE5938"/>
<path d="M540.287 19.2146C540.147 19.2032 539.982 19.1901 539.78 19.1787C538.734 19.1101 537.856 18.4974 537.59 17.6577C537.482 17.3048 537.444 16.965 537.444 16.6529C537.458 15.555 537.925 14.1206 539.773 13.3249C541.001 12.8397 542.468 13.2628 543.059 14.2774C543.477 14.9946 543.339 15.8131 542.789 16.4029C542.937 16.7019 543.002 17.0319 542.964 17.375C542.84 18.4272 541.772 19.2212 540.524 19.2212C540.443 19.2212 540.366 19.2195 540.287 19.2146Z" fill="#EE5938"/>
<path d="M667.389 19.2146C667.249 19.2032 667.084 19.1901 666.883 19.1787C665.836 19.1101 664.959 18.4974 664.693 17.6577C664.584 17.3048 664.547 16.965 664.547 16.6529C664.56 15.555 665.028 14.1206 666.875 13.3249C668.103 12.8397 669.57 13.2628 670.161 14.2774C670.579 14.9946 670.441 15.8131 669.891 16.4029C670.039 16.7019 670.104 17.0319 670.067 17.375C669.942 18.4272 668.874 19.2212 667.626 19.2212C667.545 19.2212 667.468 19.2195 667.389 19.2146Z" fill="#EE5938"/>
<path d="M553.849 6.89797C553.628 6.74505 552.881 6.835 551.663 5.96392C551.253 5.65357 550.813 4.9624 550.836 4.26823C550.853 3.42264 551.253 2.91438 551.6 2.50507C552.025 2.0238 552.682 1.76442 553.362 1.8049C554.179 1.8109 555.147 2.40012 555.467 3.00883V3.01183C555.577 3.18724 555.648 3.37166 555.693 3.56057C556.544 4.02235 556.926 4.98489 556.549 5.84548C556.224 6.58163 555.438 7.02691 554.611 7.02691C554.358 7.02691 554.101 6.98493 553.849 6.89797Z" fill="#EE5938"/>
<path d="M680.951 6.89797C680.73 6.74505 679.983 6.835 678.765 5.96392C678.355 5.65357 677.915 4.9624 677.938 4.26823C677.955 3.42264 678.355 2.91438 678.702 2.50507C679.127 2.0238 679.784 1.76442 680.465 1.8049C681.282 1.8109 682.249 2.40012 682.569 3.00883V3.01183C682.679 3.18724 682.75 3.37166 682.795 3.56057C683.646 4.02235 684.028 4.98489 683.651 5.84548C683.326 6.58163 682.54 7.02691 681.713 7.02691C681.46 7.02691 681.203 6.98493 680.951 6.89797Z" fill="#EE5938"/>
<path d="M566.982 20.0923C564.677 19.8624 563.593 18.699 563.391 16.8042C563.359 16.1076 563.769 15.1689 564.53 14.6482C565.284 14.1188 566.087 13.9986 566.789 13.9951C566.999 13.9951 567.045 14.0073 567.045 14.0038V14.0073C568.247 14.0648 569.195 14.9286 569.292 15.9927C569.319 16.0136 569.346 16.038 569.371 16.0606C570.306 16.8983 570.327 18.2741 569.409 19.1292C568.854 19.6743 567.932 20.0923 567.028 20.0923H566.982Z" fill="#EE5938"/>
<path d="M694.084 20.0923C691.779 19.8624 690.696 18.699 690.493 16.8042C690.461 16.1076 690.871 15.1689 691.633 14.6482C692.386 14.1188 693.189 13.9986 693.892 13.9951C694.101 13.9951 694.147 14.0073 694.147 14.0038V14.0073C695.349 14.0648 696.298 14.9286 696.395 15.9927C696.422 16.0136 696.448 16.038 696.473 16.0606C697.408 16.8983 697.429 18.2741 696.511 19.1292C695.956 19.6743 695.034 20.0923 694.13 20.0923H694.084Z" fill="#EE5938"/>
<path d="M574.725 7.1916C574.413 6.59862 574.274 5.98799 574.27 5.31997C574.247 4.26939 574.737 2.6685 576.682 1.9431V1.94604C577.787 1.55023 579.061 1.99165 579.528 2.926C579.864 3.6102 579.677 4.3665 579.118 4.87855C580.04 5.37147 580.397 6.38379 579.909 7.23132C579.589 7.77869 578.909 8.70715 577.323 8.76895C575.504 8.63947 575.044 7.69482 574.725 7.1916Z" fill="#EE5938"/>
<path d="M701.827 7.1916C701.515 6.59862 701.376 5.98799 701.372 5.31997C701.35 4.26939 701.839 2.6685 703.784 1.9431V1.94604C704.889 1.55023 706.163 1.99165 706.63 2.926C706.966 3.6102 706.78 4.3665 706.22 4.87855C707.142 5.37147 707.499 6.38379 707.012 7.23132C706.691 7.77869 706.011 8.70715 704.425 8.76895C702.606 8.63947 702.146 7.69482 701.827 7.1916Z" fill="#EE5938"/>
<path d="M587.661 18.3055C587.626 17.039 588.897 16.0106 590.054 15.8V15.8029C591.163 15.5372 592.312 16.1021 592.618 17.0709C592.678 17.2685 592.701 17.4689 592.688 17.6635C593.071 17.9119 593.359 18.2793 593.469 18.7165C593.718 19.6897 593.007 20.657 591.889 20.8763C591.571 20.9373 591.256 20.9634 590.974 20.9634C589.342 20.9591 587.718 19.9758 587.661 18.3055Z" fill="#EE5938"/>
<path d="M714.763 18.3055C714.728 17.039 715.999 16.0106 717.157 15.8V15.8029C718.265 15.5372 719.414 16.1021 719.72 17.0709C719.78 17.2685 719.804 17.4689 719.79 17.6635C720.173 17.9119 720.461 18.2793 720.571 18.7165C720.821 19.6897 720.11 20.657 718.991 20.8763C718.673 20.9373 718.359 20.9634 718.076 20.9634C716.444 20.9591 714.82 19.9758 714.763 18.3055Z" fill="#EE5938"/>
<path d="M602.539 6.15435C601.392 6.11757 600.803 5.71747 600.301 5.3115C599.832 4.88199 599.402 4.32893 599.379 3.46108C599.317 2.00339 601.144 0.96639 602.387 0.948739C603.464 0.819298 604.469 1.36207 604.797 2.19314C605.008 2.44026 605.147 2.73444 605.186 3.05657C605.208 3.2272 605.236 3.40812 605.236 3.65524C605.227 4.10975 605.158 4.63487 604.707 5.20853C604.287 5.76896 603.347 6.15582 602.631 6.15582C602.601 6.15582 602.569 6.15582 602.539 6.15435Z" fill="#EE5938"/>
<path d="M729.642 6.15435C728.494 6.11757 727.905 5.71747 727.404 5.3115C726.935 4.88199 726.504 4.32893 726.481 3.46108C726.419 2.00339 728.246 0.96639 729.489 0.948739C730.566 0.819298 731.572 1.36207 731.899 2.19314C732.11 2.44026 732.25 2.73444 732.289 3.05657C732.31 3.2272 732.338 3.40812 732.338 3.65524C732.329 4.10975 732.26 4.63487 731.809 5.20853C731.389 5.76896 730.449 6.15582 729.734 6.15582C729.704 6.15582 729.672 6.15582 729.642 6.15435Z" fill="#EE5938"/>
<path d="M615.786 21.8345C614.582 21.7979 613.836 21.3754 613.165 20.849C612.531 20.3153 611.946 19.5477 611.932 18.4848C611.908 17.6529 612.409 16.7698 613.155 16.2098L613.16 16.2156C614.027 15.5372 615.385 15.5855 616.183 16.3282C616.421 16.5475 616.582 16.8034 616.67 17.0724C617.654 17.1558 618.467 17.8137 618.582 18.6807C618.598 18.8211 618.627 18.9907 618.627 19.2392C618.627 19.7817 618.484 20.4411 617.911 21.0157C617.358 21.583 616.482 21.8345 615.844 21.8345H615.786Z" fill="#EE5938"/>
<path d="M742.888 21.8345C741.685 21.7979 740.938 21.3754 740.268 20.849C739.633 20.3153 739.048 19.5477 739.035 18.4848C739.01 17.6529 739.511 16.7698 740.257 16.2098L740.262 16.2156C741.129 15.5372 742.488 15.5855 743.286 16.3282C743.523 16.5475 743.684 16.8034 743.772 17.0724C744.756 17.1558 745.569 17.8137 745.684 18.6807C745.7 18.8211 745.729 18.9907 745.729 19.2392C745.729 19.7817 745.586 20.4411 745.014 21.0157C744.46 21.583 743.585 21.8345 742.947 21.8345H742.888Z" fill="#EE5938"/>
<path d="M625.863 5.008C625.269 4.80757 624.804 4.38428 624.608 3.86974C624.51 3.6364 624.485 3.38064 624.485 3.25051L624.489 3.22508C624.489 1.89985 625.569 0.119919 627.956 0.0585938C628.314 0.0660725 628.391 0.0989794 628.412 0.0989794C629.035 0.205177 629.543 0.529748 629.851 0.960522C630.066 1.0727 630.26 1.22228 630.428 1.40327C630.413 1.41524 631.177 2.02848 631.181 3.07401C631.181 3.17572 631.172 3.26696 631.163 3.36119C631.083 4.03876 630.572 4.63108 629.835 4.89433C629.167 5.13215 628.432 5.28472 627.613 5.28472C627.06 5.28472 626.465 5.21441 625.863 5.008Z" fill="#EE5938"/>
<path d="M752.965 5.008C752.372 4.80757 751.906 4.38428 751.71 3.86974C751.612 3.6364 751.588 3.38064 751.588 3.25051L751.591 3.22508C751.591 1.89985 752.671 0.119919 755.058 0.0585938C755.417 0.0660725 755.494 0.0989794 755.515 0.0989794C756.138 0.205177 756.645 0.529748 756.953 0.960522C757.168 1.0727 757.363 1.22228 757.531 1.40327C757.515 1.41524 758.28 2.02848 758.283 3.07401C758.283 3.17572 758.274 3.26696 758.266 3.36119C758.185 4.03876 757.674 4.63108 756.937 4.89433C756.269 5.13215 755.534 5.28472 754.715 5.28472C754.162 5.28472 753.567 5.21441 752.965 5.008Z" fill="#EE5938"/>
<path d="M637.289 20.0834C636.635 19.4872 636.255 18.5735 636.217 17.6807C636.201 17.5244 636.213 17.447 636.209 17.447C636.107 16.0161 637.257 14.2515 638.962 14.0259H638.967C639.905 13.8599 640.805 14.3804 641.158 15.228C641.791 15.3537 642.351 15.7824 642.62 16.4221C642.803 16.8621 642.898 17.3197 642.898 17.779C642.845 19.9029 641.022 20.9633 639.564 20.9633H639.544C638.796 20.9633 637.962 20.7071 637.289 20.0834Z" fill="#EE5938"/>
<path d="M764.392 20.0834C763.737 19.4872 763.358 18.5735 763.319 17.6807C763.303 17.5244 763.316 17.447 763.311 17.447C763.21 16.0161 764.36 14.2515 766.064 14.0259H766.069C767.007 13.8599 767.908 14.3804 768.26 15.228C768.894 15.3537 769.453 15.7824 769.722 16.4221C769.905 16.8621 770 17.3197 770 17.779C769.947 19.9029 768.125 20.9633 766.666 20.9633H766.647C765.899 20.9633 765.064 20.7071 764.392 20.0834Z" fill="#EE5938"/>
</svg>
